<svg width="273" height="403" viewBox="0 0 273 403" fill="none" xmlns="http://www.w3.org/2000/svg">
<circle cx="97" cy="395" r="8" fill="url(#paint0_linear_50_1263)"/>
<circle cx="188" cy="395" r="5" fill="#97B0CF" fill-opacity="0.5"/>
<circle cx="156" cy="395" r="5" fill="#97B0CF" fill-opacity="0.5"/>
<circle cx="125" cy="395" r="5" fill="#97B0CF" fill-opacity="0.5"/>
<path d="M63.0139 308V286.16H72.7639C75.2639 286.16 77.1539 286.8 78.4339 288.08C79.4139 289.06 79.9039 290.27 79.9039 291.71V291.77C79.9039 293.97 78.8539 295.6 76.7539 296.66C79.6739 297.66 81.1339 299.43 81.1339 301.97V302.03C81.1339 303.93 80.4039 305.4 78.9439 306.44C77.5039 307.48 75.5439 308 73.0639 308H63.0139ZM76.2439 292.34V292.28C76.2439 291.38 75.8939 290.68 75.1939 290.18C74.5139 289.68 73.5439 289.43 72.2839 289.43H66.6139V295.43H72.0139C73.3139 295.43 74.3439 295.17 75.1039 294.65C75.8639 294.11 76.2439 293.34 76.2439 292.34ZM77.4439 301.64V301.58C77.4439 299.56 75.9039 298.55 72.8239 298.55H66.6139V304.73H73.0939C74.4739 304.73 75.5439 304.47 76.3039 303.95C77.0639 303.41 77.4439 302.64 77.4439 301.64ZM84.2776 308V286.16H100.418V289.46H87.9376V295.34H99.0076V298.64H87.9376V304.7H100.568V308H84.2776ZM114.25 308.36C110.87 308.36 108.14 307.3 106.06 305.18C103.98 303.06 102.94 300.38 102.94 297.14V297.08C102.94 293.96 104 291.3 106.12 289.1C108.24 286.9 110.92 285.8 114.16 285.8C115.98 285.8 117.54 286.04 118.84 286.52C120.14 287 121.38 287.74 122.56 288.74L120.22 291.53C119.28 290.75 118.34 290.17 117.4 289.79C116.48 289.39 115.36 289.19 114.04 289.19C111.98 289.19 110.26 289.96 108.88 291.5C107.5 293.04 106.81 294.88 106.81 297.02V297.08C106.81 299.38 107.5 301.28 108.88 302.78C110.28 304.28 112.11 305.03 114.37 305.03C116.51 305.03 118.31 304.46 119.77 303.32V299.09H114.07V295.85H123.34V304.97C120.76 307.23 117.73 308.36 114.25 308.36ZM127.337 308V286.16H131.027V308H127.337ZM135.676 308V286.16H139.066L151.006 301.55V286.16H154.636V308H151.546L139.306 292.19V308H135.676ZM159.078 308V286.16H162.468L174.408 301.55V286.16H178.038V308H174.948L162.708 292.19V308H159.078ZM182.481 308V286.16H198.621V289.46H186.141V295.34H197.211V298.64H186.141V304.7H198.771V308H182.481ZM202.133 308V286.16H211.823C214.563 286.16 216.663 286.89 218.123 288.35C219.303 289.53 219.893 291.09 219.893 293.03V293.09C219.893 294.83 219.423 296.25 218.483 297.35C217.543 298.45 216.253 299.22 214.613 299.66L220.613 308H216.233L210.773 300.29H205.823V308H202.133ZM205.823 297.02H211.553C212.953 297.02 214.073 296.68 214.913 296C215.753 295.32 216.173 294.41 216.173 293.27V293.21C216.173 292.01 215.763 291.09 214.943 290.45C214.123 289.81 212.983 289.49 211.523 289.49H205.823V297.02Z" fill="#616466"/>
<path d="M93.3014 336.272C92.2454 337.568 90.8714 338.216 89.1794 338.216C87.4874 338.216 86.1194 337.574 85.0754 336.29C84.0314 334.994 83.5094 333.392 83.5094 331.484V331.448C83.5094 329.528 84.0374 327.92 85.0934 326.624C86.1494 325.328 87.5234 324.68 89.2154 324.68C90.8834 324.68 92.2454 325.328 93.3014 326.624C94.3574 327.908 94.8854 329.504 94.8854 331.412V331.448C94.8854 333.368 94.3574 334.976 93.3014 336.272ZM86.7314 334.85C87.3674 335.762 88.1954 336.218 89.2154 336.218C90.2354 336.218 91.0514 335.768 91.6634 334.868C92.2874 333.956 92.5994 332.828 92.5994 331.484V331.448C92.5994 330.104 92.2814 328.976 91.6454 328.064C91.0094 327.14 90.1874 326.678 89.1794 326.678C88.1594 326.678 87.3374 327.128 86.7134 328.028C86.1014 328.928 85.7954 330.056 85.7954 331.412V331.448C85.7954 332.792 86.1074 333.926 86.7314 334.85ZM96.2672 333.356V331.214H101.775V333.356H96.2672ZM107.763 338.216C105.915 338.216 104.319 337.544 102.975 336.2L104.343 334.616C105.483 335.684 106.617 336.218 107.745 336.218C108.561 336.218 109.209 336.008 109.689 335.588C110.169 335.156 110.409 334.586 110.409 333.878V333.842C110.409 333.158 110.151 332.612 109.635 332.204C109.131 331.796 108.465 331.592 107.637 331.592C106.845 331.592 106.029 331.796 105.189 332.204L103.839 331.322L104.217 324.896H112.029V326.858H106.125L105.909 330.062C106.617 329.798 107.331 329.666 108.051 329.666C109.383 329.666 110.475 330.026 111.327 330.746C112.179 331.454 112.605 332.462 112.605 333.77V333.806C112.605 335.138 112.155 336.206 111.255 337.01C110.367 337.814 109.203 338.216 107.763 338.216ZM123.824 336.272C122.768 337.568 121.394 338.216 119.702 338.216C118.01 338.216 116.642 337.574 115.598 336.29C114.554 334.994 114.032 333.392 114.032 331.484V331.448C114.032 329.528 114.56 327.92 115.616 326.624C116.672 325.328 118.046 324.68 119.738 324.68C121.406 324.68 122.768 325.328 123.824 326.624C124.88 327.908 125.408 329.504 125.408 331.412V331.448C125.408 333.368 124.88 334.976 123.824 336.272ZM117.254 334.85C117.89 335.762 118.718 336.218 119.738 336.218C120.758 336.218 121.574 335.768 122.186 334.868C122.81 333.956 123.122 332.828 123.122 331.484V331.448C123.122 330.104 122.804 328.976 122.168 328.064C121.532 327.14 120.71 326.678 119.702 326.678C118.682 326.678 117.86 327.128 117.236 328.028C116.624 328.928 116.318 330.056 116.318 331.412V331.448C116.318 332.792 116.63 333.926 117.254 334.85ZM136.6 336.272C135.544 337.568 134.17 338.216 132.478 338.216C130.786 338.216 129.418 337.574 128.374 336.29C127.33 334.994 126.808 333.392 126.808 331.484V331.448C126.808 329.528 127.336 327.92 128.392 326.624C129.448 325.328 130.822 324.68 132.514 324.68C134.182 324.68 135.544 325.328 136.6 326.624C137.656 327.908 138.184 329.504 138.184 331.412V331.448C138.184 333.368 137.656 334.976 136.6 336.272ZM130.03 334.85C130.666 335.762 131.494 336.218 132.514 336.218C133.534 336.218 134.35 335.768 134.962 334.868C135.586 333.956 135.898 332.828 135.898 331.484V331.448C135.898 330.104 135.58 328.976 134.944 328.064C134.308 327.14 133.486 326.678 132.478 326.678C131.458 326.678 130.636 327.128 130.012 328.028C129.4 328.928 129.094 330.056 129.094 331.412V331.448C129.094 332.792 129.406 333.926 130.03 334.85ZM148.608 338.09L144.018 324.896H146.412L149.616 334.742L152.874 324.86H154.746L158.004 334.742L161.208 324.896H163.512L158.94 338.09H157.032L153.774 328.532L150.498 338.09H148.608ZM168.347 338.216C166.859 338.216 165.617 337.724 164.621 336.74C163.625 335.744 163.127 334.538 163.127 333.122V333.086C163.127 331.67 163.631 330.458 164.639 329.45C165.647 328.442 166.895 327.938 168.383 327.938C169.871 327.938 171.113 328.436 172.109 329.432C173.105 330.428 173.603 331.634 173.603 333.05V333.086C173.603 334.502 173.099 335.714 172.091 336.722C171.095 337.718 169.847 338.216 168.347 338.216ZM168.383 336.326C169.283 336.326 170.015 336.02 170.579 335.408C171.155 334.784 171.443 334.022 171.443 333.122V333.086C171.443 332.186 171.149 331.418 170.561 330.782C169.973 330.146 169.235 329.828 168.347 329.828C167.447 329.828 166.709 330.146 166.133 330.782C165.569 331.406 165.287 332.162 165.287 333.05V333.086C165.287 333.986 165.581 334.754 166.169 335.39C166.757 336.014 167.495 336.326 168.383 336.326ZM175.195 338V328.136H177.355V330.404C178.087 328.7 179.275 327.884 180.919 327.956V330.242H180.793C179.749 330.242 178.915 330.584 178.291 331.268C177.667 331.952 177.355 332.936 177.355 334.22V338H175.195ZM185.939 338.198C184.703 338.198 183.629 337.736 182.717 336.812C181.805 335.888 181.349 334.646 181.349 333.086V333.05C181.349 331.49 181.799 330.248 182.699 329.324C183.611 328.4 184.691 327.938 185.939 327.938C187.319 327.938 188.453 328.526 189.341 329.702V324.338H191.519V338H189.341V336.308C188.489 337.568 187.355 338.198 185.939 338.198ZM184.391 335.426C184.955 336.026 185.639 336.326 186.443 336.326C187.247 336.326 187.937 336.026 188.513 335.426C189.101 334.814 189.395 334.034 189.395 333.086V333.05C189.395 332.102 189.101 331.328 188.513 330.728C187.937 330.116 187.247 329.81 186.443 329.81C185.627 329.81 184.937 330.11 184.373 330.71C183.821 331.298 183.545 332.078 183.545 333.05V333.086C183.545 334.034 183.827 334.814 184.391 335.426ZM197.011 338.18C195.427 338.18 194.035 337.694 192.835 336.722L193.825 335.246C194.941 336.062 196.027 336.47 197.083 336.47C197.587 336.47 197.977 336.368 198.253 336.164C198.529 335.96 198.667 335.684 198.667 335.336V335.3C198.667 335.192 198.649 335.09 198.613 334.994C198.577 334.898 198.511 334.814 198.415 334.742C198.331 334.658 198.247 334.586 198.163 334.526C198.091 334.466 197.971 334.406 197.803 334.346C197.635 334.286 197.497 334.238 197.389 334.202C197.293 334.166 197.137 334.112 196.921 334.04C196.705 333.968 196.543 333.914 196.435 333.878C196.075 333.77 195.775 333.674 195.535 333.59C195.307 333.506 195.037 333.386 194.725 333.23C194.425 333.062 194.185 332.888 194.005 332.708C193.825 332.516 193.669 332.276 193.537 331.988C193.405 331.688 193.339 331.358 193.339 330.998V330.962C193.339 330.062 193.669 329.342 194.329 328.802C194.989 328.25 195.817 327.974 196.813 327.974C198.133 327.974 199.339 328.346 200.431 329.09L199.567 330.638C198.535 330.014 197.605 329.702 196.777 329.702C196.333 329.702 195.979 329.798 195.715 329.99C195.463 330.182 195.337 330.428 195.337 330.728V330.764C195.337 330.992 195.451 331.202 195.679 331.394C195.919 331.574 196.165 331.718 196.417 331.826C196.681 331.922 197.071 332.048 197.587 332.204C198.019 332.336 198.385 332.468 198.685 332.6C198.997 332.732 199.315 332.906 199.639 333.122C199.975 333.338 200.227 333.614 200.395 333.95C200.575 334.274 200.665 334.646 200.665 335.066V335.102C200.665 336.098 200.323 336.86 199.639 337.388C198.967 337.916 198.091 338.18 197.011 338.18Z" fill="#8CA6C5"/>
<ellipse cx="136.5" cy="230.5" rx="136.5" ry="14.5" fill="#D3E9FC"/>
<rect x="101" y="2.68726" width="77" height="77" rx="10" transform="rotate(-2 101 2.68726)" fill="#48CEE0"/>
<path d="M141.253 27.1528L128.572 60.1275C128.302 60.9481 127.855 61.604 127.232 62.0954C126.65 62.5427 125.996 62.779 125.271 62.8043C124.12 62.8445 123.256 62.5545 122.68 61.9342C122.103 61.314 121.798 60.5348 121.765 59.5967C121.752 59.2129 121.802 58.8056 121.915 58.3747L136.505 19.5699C136.817 18.7052 137.305 18.0264 137.971 17.5335C138.68 17.0391 139.441 16.8204 140.254 16.8774C141.021 16.8506 141.733 17.0606 142.389 17.5073C143.086 17.9099 143.598 18.511 143.925 19.3108L160.968 56.2425C161.201 56.7894 161.325 57.2973 161.342 57.7664C161.382 58.9177 161.03 59.8479 160.286 60.5569C159.585 61.2645 158.787 61.6339 157.892 61.6652C157.124 61.692 156.412 61.482 155.756 61.0353C155.143 60.5871 154.652 59.9639 154.282 59.1656L139.412 27.6014L141.253 27.1528ZM130.282 52.255L133.543 44.7766L150.813 44.1735L152.285 51.4866L130.282 52.255Z" fill="white"/>
<rect x="130.507" y="80.5554" width="77" height="77" rx="10" transform="rotate(-6 130.507 80.5554)" fill="#FF7C8E"/>
<path d="M194.597 112.245C194.931 115.427 194.713 118.453 193.942 121.323C193.171 124.193 191.921 126.791 190.192 129.118C188.501 131.398 186.382 133.272 183.833 134.741C181.327 136.206 178.504 137.103 175.364 137.433C172.224 137.763 169.276 137.472 166.521 136.561C163.765 135.649 161.302 134.256 159.131 132.382C156.999 130.461 155.257 128.178 153.907 125.531C152.556 122.884 151.713 119.97 151.379 116.787C151.044 113.605 151.262 110.579 152.033 107.709C152.804 104.839 154.035 102.265 155.726 99.9847C157.455 97.6579 159.573 95.7622 162.079 94.2976C164.584 92.8329 167.407 91.9356 170.548 91.6056C173.688 91.2755 176.635 91.5663 179.391 92.4779C182.189 93.3851 184.655 94.7991 186.787 96.7201C188.958 98.5941 190.718 100.854 192.069 103.501C193.42 106.148 194.262 109.062 194.597 112.245ZM186.322 113.114C186.023 110.271 185.181 107.764 183.794 105.594C182.403 103.38 180.639 101.699 178.502 100.551C176.365 99.4028 173.981 98.967 171.35 99.2435C168.719 99.52 166.478 100.442 164.627 102.009C162.775 103.577 161.397 105.567 160.492 107.978C159.629 110.386 159.35 113.032 159.653 115.918C159.952 118.761 160.776 121.291 162.124 123.509C163.511 125.68 165.272 127.339 167.41 128.488C169.547 129.636 171.931 130.072 174.561 129.795C177.192 129.519 179.433 128.597 181.285 127.029C183.137 125.462 184.515 123.472 185.42 121.06C186.32 118.606 186.621 115.957 186.322 113.114Z" fill="white"/>
<rect x="56.0487" y="71" width="77" height="77" rx="10" transform="rotate(6 56.0487 71)" fill="#FDB651"/>
<path d="M85.2907 133.192C81.2171 132.764 78.2835 131.49 76.4899 129.371C74.6962 127.252 73.9956 124.326 74.3881 120.591C74.5977 118.597 75.2708 116.887 76.4073 115.462C77.5393 114.08 79.1047 113.065 81.1034 112.417C83.0976 111.811 85.495 111.656 88.2956 111.95L87.7399 114.787C86.4245 114.649 84.9382 114.3 83.281 113.74C81.6194 113.222 80.0526 112.413 78.5807 111.315C77.0619 110.254 75.8803 108.843 75.0359 107.081C74.1445 105.357 73.8326 103.222 74.1002 100.676C74.3946 97.8757 75.1022 95.6334 76.223 93.9493C77.3014 92.2608 78.6345 91.0066 80.2222 90.1868C81.8099 89.3669 83.4725 88.8552 85.21 88.6517C86.943 88.4906 88.5945 88.4926 90.1645 88.6576L106.013 90.3234C107.116 90.4394 108.012 90.8982 108.7 91.6998C109.341 92.5394 109.604 93.5108 109.488 94.6141L105.621 131.403C105.505 132.507 105.049 133.381 104.251 134.027C103.407 134.71 102.434 134.994 101.33 134.878L85.2907 133.192ZM87.2258 125.802L98.5554 126.993L97.6209 127.924L98.8318 116.404L99.5353 117.057L88.0784 115.853C86.8479 115.723 85.7023 116.01 84.6416 116.714C83.5809 117.418 82.9703 118.533 82.8097 120.061C82.6179 121.885 82.9464 123.25 83.7952 124.154C84.5971 125.097 85.7406 125.646 87.2258 125.802ZM88.5496 108.308L100.134 109.526L99.5074 109.975L100.919 96.545L101.489 97.2484L89.3952 95.9773C87.4433 95.7722 85.841 96.1186 84.5882 97.0165C83.331 97.957 82.5932 99.4668 82.3746 101.546C82.174 103.455 82.4109 104.875 83.0855 105.804C83.7601 106.733 84.6167 107.359 85.6552 107.683C86.6937 108.006 87.6585 108.215 88.5496 108.308Z" fill="white"/>
<rect x="92.3202" y="156.32" width="77" height="77" rx="10" fill="#868BFF"/>
<path d="M155.065 205.232C155.065 206.426 154.703 207.493 153.977 208.432C153.209 209.37 152.271 209.84 151.161 209.84H114.169C113.06 209.84 112.143 209.477 111.417 208.752C110.649 207.984 110.265 207.045 110.265 205.936V187.504C110.265 185.285 110.863 183.216 112.057 181.296C113.209 179.333 114.831 177.754 116.921 176.56C118.969 175.365 121.337 174.768 124.025 174.768C125.647 174.768 127.225 175.109 128.761 175.792C130.297 176.432 131.684 177.328 132.921 178.48C134.159 179.589 135.119 180.848 135.801 182.256L134.329 182.192C134.969 180.997 135.737 180.016 136.633 179.248C137.487 178.437 138.425 177.818 139.449 177.392C140.431 176.922 141.497 176.645 142.649 176.56C143.716 176.389 144.655 176.282 145.465 176.24C146.276 176.154 146.959 176.026 147.513 175.856C148.068 175.642 148.495 175.258 148.793 174.704C149.348 173.765 150.159 173.189 151.225 172.976C152.249 172.72 153.167 172.954 153.977 173.68C154.532 174.149 154.895 174.746 155.065 175.472C155.193 176.197 155.193 176.922 155.065 177.648C154.895 178.373 154.681 178.97 154.425 179.44C153.999 180.165 153.38 180.89 152.569 181.616C151.716 182.341 150.585 182.938 149.177 183.408C147.769 183.834 145.956 184.048 143.737 184.048C143.012 184.048 142.351 184.176 141.753 184.432C141.113 184.688 140.58 185.05 140.153 185.52C139.684 185.989 139.343 186.586 139.129 187.312C138.873 188.037 138.745 188.89 138.745 189.872V202.8L137.273 201.84H151.161C152.271 201.84 153.209 202.138 153.977 202.736C154.703 203.333 155.065 204.165 155.065 205.232ZM132.153 202.736V187.824C132.153 187.056 131.812 186.309 131.129 185.584C130.404 184.858 129.444 184.261 128.249 183.792C127.012 183.322 125.668 183.088 124.217 183.088C122.34 183.088 120.783 183.6 119.545 184.624C118.265 185.605 117.625 186.672 117.625 187.824V202.608L115.577 201.84H133.689L132.153 202.736Z" fill="white"/>
<rect x="178.013" y="152.367" width="77" height="77" rx="10" transform="rotate(5.69889 178.013 152.367)" fill="#ACDE5F"/>
<path d="M230.545 175.681C231.593 176.343 232.143 177.277 232.195 178.483C232.288 179.693 231.883 180.746 230.979 181.642C230.351 182.351 229.587 182.704 228.686 182.7C227.829 182.7 226.975 182.443 226.126 181.929C225.154 181.361 224.107 180.892 222.986 180.523C221.908 180.158 220.753 179.914 219.522 179.791C217.229 179.562 215.134 179.718 213.237 180.257C211.381 180.801 209.749 181.689 208.34 182.92C206.935 184.109 205.802 185.583 204.94 187.34C204.121 189.102 203.602 191.087 203.381 193.295C203.123 195.885 203.259 198.171 203.79 200.154C204.364 202.14 205.245 203.836 206.434 205.241C207.623 206.646 209.077 207.756 210.797 208.571C212.521 209.343 214.423 209.833 216.503 210.041C217.65 210.155 218.806 210.164 219.974 210.066C221.141 209.968 222.283 209.696 223.4 209.25C224.334 208.914 225.219 208.852 226.055 209.065C226.934 209.281 227.633 209.801 228.151 210.624C228.894 211.77 229.081 212.904 228.712 214.025C228.39 215.108 227.672 215.851 226.56 216.254C225.401 216.696 224.208 217.049 222.981 217.312C221.801 217.537 220.608 217.676 219.402 217.727C218.192 217.82 216.972 217.806 215.741 217.683C212.684 217.378 209.824 216.599 207.162 215.348C204.542 214.1 202.245 212.413 200.271 210.286C198.339 208.164 196.899 205.619 195.951 202.652C195.008 199.642 194.725 196.247 195.102 192.469C195.429 189.2 196.281 186.241 197.661 183.591C199.082 180.946 200.912 178.727 203.149 176.935C205.432 175.105 208.03 173.778 210.943 172.953C213.859 172.087 216.973 171.819 220.285 172.149C222.153 172.335 223.957 172.73 225.698 173.332C227.439 173.935 229.054 174.718 230.545 175.681Z" fill="white"/>
<rect x="8.67053" y="152.701" width="77" height="77" rx="10" transform="rotate(-3 8.67053 152.701)" fill="#E88FFD"/>
<path d="M62.5122 165.538C63.4922 165.486 64.3858 165.824 65.1929 166.551C66.0404 167.233 66.4943 168.149 66.5546 169.299C66.5747 169.683 66.532 170.091 66.4265 170.524C66.3614 170.912 66.2111 171.304 65.9755 171.701L52.556 193.233L53.4753 188.763L54.4366 207.105C54.4947 208.213 54.1603 209.171 53.4336 209.978C52.7472 210.74 51.914 211.147 50.934 211.198C49.8688 211.254 48.9338 210.94 48.1289 210.256C47.3643 209.527 46.953 208.608 46.895 207.501L45.9605 189.669L46.5789 191.688L31.8126 174.068C31.3575 173.537 31.0313 173.02 30.8341 172.517C30.6368 172.015 30.5271 171.551 30.5047 171.125C30.4444 169.974 30.8427 169.013 31.6995 168.242C32.5563 167.471 33.4534 167.061 34.3908 167.012C35.5838 166.949 36.659 167.491 37.6163 168.637L50.7751 184.931L48.9721 184.769L59.4171 167.623C60.2449 166.298 61.2766 165.603 62.5122 165.538Z" fill="white"/>
<defs>
<linearGradient id="paint0_linear_50_1263" x1="89" y1="395" x2="105" y2="395" gradientUnits="userSpaceOnUse">
<stop stop-color="#1CCBFA"/>
<stop offset="1" stop-color="#519FFA"/>
</linearGradient>
</defs>
</svg>
