<svg width="276" height="403" viewBox="0 0 276 403" fill="none" xmlns="http://www.w3.org/2000/svg">
<circle cx="127" cy="395" r="8" fill="url(#paint0_linear_50_1262)"/>
<circle cx="190" cy="395" r="5" fill="#97B0CF" fill-opacity="0.5"/>
<circle cx="159" cy="395" r="5" fill="#97B0CF" fill-opacity="0.5"/>
<circle cx="97" cy="395" r="5" fill="#97B0CF" fill-opacity="0.5"/>
<path d="M52.2062 308.3C48.7262 308.3 45.6962 307.14 43.1162 304.82L45.3362 302.18C47.5562 304.08 49.8762 305.03 52.2962 305.03C53.5162 305.03 54.4862 304.77 55.2062 304.25C55.9262 303.73 56.2862 303.04 56.2862 302.18V302.12C56.2862 301.3 55.9362 300.64 55.2362 300.14C54.5562 299.64 53.2362 299.16 51.2762 298.7C48.7362 298.1 46.8862 297.34 45.7262 296.42C44.5662 295.48 43.9862 294.07 43.9862 292.19V292.13C43.9862 290.29 44.6762 288.79 46.0562 287.63C47.4562 286.45 49.2362 285.86 51.3962 285.86C54.3962 285.86 57.0362 286.77 59.3162 288.59L57.3062 291.38C55.3662 289.88 53.3762 289.13 51.3362 289.13C50.1962 289.13 49.2962 289.38 48.6362 289.88C47.9762 290.38 47.6462 291.02 47.6462 291.8V291.86C47.6462 292.76 48.0062 293.46 48.7262 293.96C49.4462 294.46 50.8562 294.94 52.9562 295.4C55.3762 295.98 57.1462 296.75 58.2662 297.71C59.3862 298.67 59.9462 300.02 59.9462 301.76V301.82C59.9462 303.82 59.2262 305.4 57.7862 306.56C56.3662 307.72 54.5062 308.3 52.2062 308.3ZM81.8711 305.06C79.7111 307.26 76.9811 308.36 73.6811 308.36C70.3811 308.36 67.6611 307.27 65.5211 305.09C63.3811 302.91 62.3111 300.26 62.3111 297.14V297.08C62.3111 293.96 63.3911 291.3 65.5511 289.1C67.7111 286.9 70.4411 285.8 73.7411 285.8C77.0211 285.8 79.7311 286.9 81.8711 289.1C84.0311 291.28 85.1111 293.92 85.1111 297.02V297.08C85.1111 300.2 84.0311 302.86 81.8711 305.06ZM68.3111 302.69C69.7511 304.21 71.5611 304.97 73.7411 304.97C75.9211 304.97 77.7111 304.22 79.1111 302.72C80.5311 301.2 81.2411 299.34 81.2411 297.14V297.08C81.2411 294.88 80.5211 293.02 79.0811 291.5C77.6611 289.96 75.8611 289.19 73.6811 289.19C71.5011 289.19 69.7011 289.95 68.2811 291.47C66.8811 292.97 66.1811 294.82 66.1811 297.02V297.08C66.1811 299.28 66.8911 301.15 68.3111 302.69ZM88.5491 308V286.16H97.0991C99.5991 286.16 101.599 286.83 103.099 288.17C104.619 289.49 105.379 291.23 105.379 293.39V293.48C105.379 295.84 104.559 297.67 102.919 298.97C101.279 300.25 99.1991 300.89 96.6791 300.89H92.2391V308H88.5491ZM92.2391 297.59H96.7991C98.2791 297.59 99.4591 297.22 100.339 296.48C101.219 295.74 101.659 294.77 101.659 293.57V293.51C101.659 292.21 101.229 291.22 100.369 290.54C99.5091 289.84 98.3191 289.49 96.7991 289.49H92.2391V297.59ZM108.143 308V286.16H111.833V295.31H122.483V286.16H126.173V308H122.483V298.73H111.833V308H108.143ZM149.148 305.06C146.988 307.26 144.258 308.36 140.958 308.36C137.658 308.36 134.938 307.27 132.798 305.09C130.658 302.91 129.588 300.26 129.588 297.14V297.08C129.588 293.96 130.668 291.3 132.828 289.1C134.988 286.9 137.718 285.8 141.018 285.8C144.298 285.8 147.008 286.9 149.148 289.1C151.308 291.28 152.388 293.92 152.388 297.02V297.08C152.388 300.2 151.308 302.86 149.148 305.06ZM135.588 302.69C137.028 304.21 138.838 304.97 141.018 304.97C143.198 304.97 144.988 304.22 146.388 302.72C147.808 301.2 148.518 299.34 148.518 297.14V297.08C148.518 294.88 147.798 293.02 146.358 291.5C144.938 289.96 143.138 289.19 140.958 289.19C138.778 289.19 136.978 289.95 135.558 291.47C134.158 292.97 133.458 294.82 133.458 297.02V297.08C133.458 299.28 134.168 301.15 135.588 302.69ZM155.826 308V286.16H159.726L166.506 296.69L173.316 286.16H177.216V308H173.556V292.1L166.536 302.57H166.416L159.426 292.16V308H155.826ZM200.23 305.06C198.07 307.26 195.34 308.36 192.04 308.36C188.74 308.36 186.02 307.27 183.88 305.09C181.74 302.91 180.67 300.26 180.67 297.14V297.08C180.67 293.96 181.75 291.3 183.91 289.1C186.07 286.9 188.8 285.8 192.1 285.8C195.38 285.8 198.09 286.9 200.23 289.1C202.39 291.28 203.47 293.92 203.47 297.02V297.08C203.47 300.2 202.39 302.86 200.23 305.06ZM186.67 302.69C188.11 304.21 189.92 304.97 192.1 304.97C194.28 304.97 196.07 304.22 197.47 302.72C198.89 301.2 199.6 299.34 199.6 297.14V297.08C199.6 294.88 198.88 293.02 197.44 291.5C196.02 289.96 194.22 289.19 192.04 289.19C189.86 289.19 188.06 289.95 186.64 291.47C185.24 292.97 184.54 294.82 184.54 297.02V297.08C184.54 299.28 185.25 301.15 186.67 302.69ZM206.908 308V286.16H216.598C219.338 286.16 221.438 286.89 222.898 288.35C224.078 289.53 224.668 291.09 224.668 293.03V293.09C224.668 294.83 224.198 296.25 223.258 297.35C222.318 298.45 221.028 299.22 219.388 299.66L225.388 308H221.008L215.548 300.29H210.598V308H206.908ZM210.598 297.02H216.328C217.728 297.02 218.848 296.68 219.688 296C220.528 295.32 220.948 294.41 220.948 293.27V293.21C220.948 292.01 220.538 291.09 219.718 290.45C218.898 289.81 217.758 289.49 216.298 289.49H210.598V297.02ZM228.201 308V286.16H244.341V289.46H231.861V295.34H242.931V298.64H231.861V304.7H244.491V308H228.201Z" fill="#616466"/>
<path d="M75.3375 338.216C73.4895 338.216 71.8935 337.544 70.5495 336.2L71.9175 334.616C73.0575 335.684 74.1915 336.218 75.3195 336.218C76.1355 336.218 76.7835 336.008 77.2635 335.588C77.7435 335.156 77.9835 334.586 77.9835 333.878V333.842C77.9835 333.158 77.7255 332.612 77.2095 332.204C76.7055 331.796 76.0395 331.592 75.2115 331.592C74.4195 331.592 73.6035 331.796 72.7635 332.204L71.4135 331.322L71.7915 324.896H79.6035V326.858H73.6995L73.4835 330.062C74.1915 329.798 74.9055 329.666 75.6255 329.666C76.9575 329.666 78.0495 330.026 78.9015 330.746C79.7535 331.454 80.1795 332.462 80.1795 333.77V333.806C80.1795 335.138 79.7295 336.206 78.8295 337.01C77.9415 337.814 76.7775 338.216 75.3375 338.216ZM91.3989 336.272C90.3429 337.568 88.9689 338.216 87.2769 338.216C85.5849 338.216 84.2169 337.574 83.1729 336.29C82.1289 334.994 81.6069 333.392 81.6069 331.484V331.448C81.6069 329.528 82.1349 327.92 83.1909 326.624C84.2469 325.328 85.6209 324.68 87.3129 324.68C88.9809 324.68 90.3429 325.328 91.3989 326.624C92.4549 327.908 92.9829 329.504 92.9829 331.412V331.448C92.9829 333.368 92.4549 334.976 91.3989 336.272ZM84.8289 334.85C85.4649 335.762 86.2929 336.218 87.3129 336.218C88.3329 336.218 89.1489 335.768 89.7609 334.868C90.3849 333.956 90.6969 332.828 90.6969 331.484V331.448C90.6969 330.104 90.3789 328.976 89.7429 328.064C89.1069 327.14 88.2849 326.678 87.2769 326.678C86.2569 326.678 85.4349 327.128 84.8109 328.028C84.1989 328.928 83.8929 330.056 83.8929 331.412V331.448C83.8929 332.792 84.2049 333.926 84.8289 334.85ZM104.175 336.272C103.119 337.568 101.745 338.216 100.053 338.216C98.3607 338.216 96.9927 337.574 95.9487 336.29C94.9047 334.994 94.3827 333.392 94.3827 331.484V331.448C94.3827 329.528 94.9107 327.92 95.9667 326.624C97.0227 325.328 98.3967 324.68 100.089 324.68C101.757 324.68 103.119 325.328 104.175 326.624C105.231 327.908 105.759 329.504 105.759 331.412V331.448C105.759 333.368 105.231 334.976 104.175 336.272ZM97.6047 334.85C98.2407 335.762 99.0687 336.218 100.089 336.218C101.109 336.218 101.925 335.768 102.537 334.868C103.161 333.956 103.473 332.828 103.473 331.484V331.448C103.473 330.104 103.155 328.976 102.519 328.064C101.883 327.14 101.061 326.678 100.053 326.678C99.0327 326.678 98.2107 327.128 97.5867 328.028C96.9747 328.928 96.6687 330.056 96.6687 331.412V331.448C96.6687 332.792 96.9807 333.926 97.6047 334.85ZM107.14 333.356V331.214H112.648V333.356H107.14ZM115.715 338V327.056L113.357 327.722L112.871 325.922L116.363 324.806H117.911V338H115.715ZM129.828 336.272C128.772 337.568 127.398 338.216 125.706 338.216C124.014 338.216 122.646 337.574 121.602 336.29C120.558 334.994 120.036 333.392 120.036 331.484V331.448C120.036 329.528 120.564 327.92 121.62 326.624C122.676 325.328 124.05 324.68 125.742 324.68C127.41 324.68 128.772 325.328 129.828 326.624C130.884 327.908 131.412 329.504 131.412 331.412V331.448C131.412 333.368 130.884 334.976 129.828 336.272ZM123.258 334.85C123.894 335.762 124.722 336.218 125.742 336.218C126.762 336.218 127.578 335.768 128.19 334.868C128.814 333.956 129.126 332.828 129.126 331.484V331.448C129.126 330.104 128.808 328.976 128.172 328.064C127.536 327.14 126.714 326.678 125.706 326.678C124.686 326.678 123.864 327.128 123.24 328.028C122.628 328.928 122.322 330.056 122.322 331.412V331.448C122.322 332.792 122.634 333.926 123.258 334.85ZM142.604 336.272C141.548 337.568 140.174 338.216 138.482 338.216C136.79 338.216 135.422 337.574 134.378 336.29C133.334 334.994 132.812 333.392 132.812 331.484V331.448C132.812 329.528 133.34 327.92 134.396 326.624C135.452 325.328 136.826 324.68 138.518 324.68C140.186 324.68 141.548 325.328 142.604 326.624C143.66 327.908 144.188 329.504 144.188 331.412V331.448C144.188 333.368 143.66 334.976 142.604 336.272ZM136.034 334.85C136.67 335.762 137.498 336.218 138.518 336.218C139.538 336.218 140.354 335.768 140.966 334.868C141.59 333.956 141.902 332.828 141.902 331.484V331.448C141.902 330.104 141.584 328.976 140.948 328.064C140.312 327.14 139.49 326.678 138.482 326.678C137.462 326.678 136.64 327.128 136.016 328.028C135.404 328.928 135.098 330.056 135.098 331.412V331.448C135.098 332.792 135.41 333.926 136.034 334.85ZM155.38 336.272C154.324 337.568 152.95 338.216 151.258 338.216C149.566 338.216 148.198 337.574 147.154 336.29C146.11 334.994 145.588 333.392 145.588 331.484V331.448C145.588 329.528 146.116 327.92 147.172 326.624C148.228 325.328 149.602 324.68 151.294 324.68C152.962 324.68 154.324 325.328 155.38 326.624C156.436 327.908 156.964 329.504 156.964 331.412V331.448C156.964 333.368 156.436 334.976 155.38 336.272ZM148.81 334.85C149.446 335.762 150.274 336.218 151.294 336.218C152.314 336.218 153.13 335.768 153.742 334.868C154.366 333.956 154.678 332.828 154.678 331.484V331.448C154.678 330.104 154.36 328.976 153.724 328.064C153.088 327.14 152.266 326.678 151.258 326.678C150.238 326.678 149.416 327.128 148.792 328.028C148.18 328.928 147.874 330.056 147.874 331.412V331.448C147.874 332.792 148.186 333.926 148.81 334.85ZM167.388 338.09L162.798 324.896H165.192L168.396 334.742L171.654 324.86H173.526L176.784 334.742L179.988 324.896H182.292L177.72 338.09H175.812L172.554 328.532L169.278 338.09H167.388ZM187.127 338.216C185.639 338.216 184.397 337.724 183.401 336.74C182.405 335.744 181.907 334.538 181.907 333.122V333.086C181.907 331.67 182.411 330.458 183.419 329.45C184.427 328.442 185.675 327.938 187.163 327.938C188.651 327.938 189.893 328.436 190.889 329.432C191.885 330.428 192.383 331.634 192.383 333.05V333.086C192.383 334.502 191.879 335.714 190.871 336.722C189.875 337.718 188.627 338.216 187.127 338.216ZM187.163 336.326C188.063 336.326 188.795 336.02 189.359 335.408C189.935 334.784 190.223 334.022 190.223 333.122V333.086C190.223 332.186 189.929 331.418 189.341 330.782C188.753 330.146 188.015 329.828 187.127 329.828C186.227 329.828 185.489 330.146 184.913 330.782C184.349 331.406 184.067 332.162 184.067 333.05V333.086C184.067 333.986 184.361 334.754 184.949 335.39C185.537 336.014 186.275 336.326 187.163 336.326ZM193.975 338V328.136H196.135V330.404C196.867 328.7 198.055 327.884 199.699 327.956V330.242H199.573C198.529 330.242 197.695 330.584 197.071 331.268C196.447 331.952 196.135 332.936 196.135 334.22V338H193.975ZM204.719 338.198C203.483 338.198 202.409 337.736 201.497 336.812C200.585 335.888 200.129 334.646 200.129 333.086V333.05C200.129 331.49 200.579 330.248 201.479 329.324C202.391 328.4 203.471 327.938 204.719 327.938C206.099 327.938 207.233 328.526 208.121 329.702V324.338H210.299V338H208.121V336.308C207.269 337.568 206.135 338.198 204.719 338.198ZM203.171 335.426C203.735 336.026 204.419 336.326 205.223 336.326C206.027 336.326 206.717 336.026 207.293 335.426C207.881 334.814 208.175 334.034 208.175 333.086V333.05C208.175 332.102 207.881 331.328 207.293 330.728C206.717 330.116 206.027 329.81 205.223 329.81C204.407 329.81 203.717 330.11 203.153 330.71C202.601 331.298 202.325 332.078 202.325 333.05V333.086C202.325 334.034 202.607 334.814 203.171 335.426ZM215.791 338.18C214.207 338.18 212.815 337.694 211.615 336.722L212.605 335.246C213.721 336.062 214.807 336.47 215.863 336.47C216.367 336.47 216.757 336.368 217.033 336.164C217.309 335.96 217.447 335.684 217.447 335.336V335.3C217.447 335.192 217.429 335.09 217.393 334.994C217.357 334.898 217.291 334.814 217.195 334.742C217.111 334.658 217.027 334.586 216.943 334.526C216.871 334.466 216.751 334.406 216.583 334.346C216.415 334.286 216.277 334.238 216.169 334.202C216.073 334.166 215.917 334.112 215.701 334.04C215.485 333.968 215.323 333.914 215.215 333.878C214.855 333.77 214.555 333.674 214.315 333.59C214.087 333.506 213.817 333.386 213.505 333.23C213.205 333.062 212.965 332.888 212.785 332.708C212.605 332.516 212.449 332.276 212.317 331.988C212.185 331.688 212.119 331.358 212.119 330.998V330.962C212.119 330.062 212.449 329.342 213.109 328.802C213.769 328.25 214.597 327.974 215.593 327.974C216.913 327.974 218.119 328.346 219.211 329.09L218.347 330.638C217.315 330.014 216.385 329.702 215.557 329.702C215.113 329.702 214.759 329.798 214.495 329.99C214.243 330.182 214.117 330.428 214.117 330.728V330.764C214.117 330.992 214.231 331.202 214.459 331.394C214.699 331.574 214.945 331.718 215.197 331.826C215.461 331.922 215.851 332.048 216.367 332.204C216.799 332.336 217.165 332.468 217.465 332.6C217.777 332.732 218.095 332.906 218.419 333.122C218.755 333.338 219.007 333.614 219.175 333.95C219.355 334.274 219.445 334.646 219.445 335.066V335.102C219.445 336.098 219.103 336.86 218.419 337.388C217.747 337.916 216.871 338.18 215.791 338.18Z" fill="#8CA6C5"/>
<ellipse cx="139.5" cy="230.5" rx="136.5" ry="14.5" fill="#D3E9FC"/>
<rect x="104" y="2.68726" width="77" height="77" rx="10" transform="rotate(-2 104 2.68726)" fill="#48CEE0"/>
<path d="M131.758 58.6608C131.646 58.5153 131.592 58.325 131.594 58.0901C131.597 57.8553 131.728 57.6479 131.989 57.468C132.156 57.3554 132.335 57.3065 132.528 57.3211C132.72 57.3251 132.91 57.4145 133.098 57.5894C133.418 57.8877 133.751 58.1162 134.098 58.2749C134.445 58.4335 134.875 58.5039 135.386 58.486C135.546 58.4698 135.721 58.4423 135.912 58.4037C136.102 58.3543 136.264 58.2633 136.399 58.1305C136.543 57.9867 136.61 57.7762 136.601 57.4991C136.592 57.2645 136.506 57.0808 136.341 56.9478C136.177 56.8148 135.959 56.705 135.689 56.6183C135.43 56.5313 135.139 56.4508 134.816 56.3767C134.483 56.2923 134.138 56.1976 133.782 56.0926C133.437 55.9872 133.117 55.849 132.823 55.6778C132.528 55.496 132.285 55.2536 132.093 54.9508C131.901 54.648 131.797 54.2621 131.78 53.793C131.762 53.26 131.895 52.8018 132.181 52.4182C132.466 52.0347 132.84 51.7335 133.302 51.5146C133.774 51.2953 134.272 51.1765 134.794 51.1582C135.125 51.1467 135.473 51.1772 135.838 51.2499C136.203 51.3118 136.554 51.4277 136.891 51.5973C137.227 51.7564 137.512 51.9759 137.746 52.2559C137.869 52.4117 137.945 52.6012 137.974 52.8243C138.003 53.0474 137.909 53.2535 137.692 53.4425C137.536 53.576 137.352 53.6412 137.138 53.638C136.924 53.6241 136.746 53.5556 136.603 53.4325C136.413 53.2043 136.162 53.0263 135.848 52.8985C135.544 52.7704 135.195 52.7132 134.801 52.727C134.641 52.7326 134.466 52.76 134.276 52.8094C134.095 52.8477 133.938 52.9332 133.804 53.066C133.67 53.1881 133.607 53.3824 133.616 53.6489C133.625 53.8941 133.712 54.0885 133.877 54.2321C134.042 54.3651 134.259 54.4749 134.529 54.5616C134.809 54.6372 135.105 54.7122 135.417 54.7867C135.74 54.8608 136.069 54.9507 136.403 55.0565C136.738 55.1622 137.047 55.3062 137.331 55.4884C137.615 55.6706 137.847 55.9133 138.029 56.2164C138.21 56.509 138.308 56.8898 138.325 57.3588C138.344 57.9025 138.2 58.3718 137.894 58.7667C137.587 59.1616 137.198 59.4688 136.725 59.6881C136.252 59.8967 135.765 60.0098 135.264 60.0273C134.635 60.0492 134.002 59.9646 133.366 59.7733C132.729 59.5714 132.193 59.2006 131.758 58.6608ZM146.064 50.9248C146.341 50.9151 146.573 51.0031 146.761 51.1886C146.949 51.3635 147.048 51.5895 147.057 51.8667L147.199 55.9282C147.238 57.0582 146.955 57.9646 146.349 58.6475C145.744 59.3304 144.849 59.6925 143.666 59.7339C142.482 59.7752 141.565 59.4764 140.913 58.8374C140.271 58.1981 139.931 57.3134 139.891 56.1834L139.75 52.1219C139.74 51.8447 139.823 51.6124 139.997 51.4248C140.172 51.2266 140.398 51.1227 140.675 51.113C140.952 51.1033 141.185 51.1912 141.373 51.3768C141.56 51.5517 141.659 51.7777 141.668 52.0549L141.81 56.1164C141.833 56.7667 141.994 57.2467 142.293 57.5564C142.591 57.8555 143.029 57.995 143.604 57.9749C144.191 57.9545 144.622 57.7846 144.899 57.4654C145.176 57.1356 145.303 56.6455 145.28 55.9952L145.138 51.9337C145.129 51.6566 145.211 51.4242 145.386 51.2366C145.561 51.0384 145.787 50.9345 146.064 50.9248ZM153.668 50.4992C154.457 50.4716 155.06 50.616 155.476 50.9323C155.904 51.2483 156.202 51.6808 156.37 52.2299C156.549 52.768 156.65 53.3728 156.674 54.0444L156.817 58.1379C156.826 58.4151 156.744 58.6528 156.569 58.851C156.394 59.0385 156.168 59.1372 155.891 59.1468C155.614 59.1565 155.382 59.0739 155.194 58.899C155.006 58.7135 154.907 58.4821 154.898 58.2049L154.755 54.1114C154.743 53.7596 154.684 53.4468 154.578 53.173C154.483 52.8882 154.315 52.6646 154.074 52.5022C153.834 52.3398 153.495 52.2663 153.058 52.2815C152.632 52.2964 152.272 52.3944 151.98 52.5754C151.698 52.756 151.482 52.993 151.332 53.2864C151.192 53.5688 151.129 53.8858 151.141 54.2376L151.284 58.3311C151.294 58.6083 151.211 58.846 151.037 59.0442C150.862 59.2317 150.636 59.3304 150.359 59.34C150.081 59.3497 149.849 59.2671 149.662 59.0922C149.474 58.9067 149.375 58.6753 149.365 58.3981L149.135 51.7942C149.125 51.517 149.207 51.2846 149.382 51.0971C149.557 50.8989 149.783 50.7949 150.06 50.7853C150.337 50.7756 150.57 50.8635 150.758 51.0491C150.945 51.224 151.044 51.45 151.053 51.7272L151.077 52.4147L150.836 52.3751C150.925 52.1906 151.057 51.9938 151.232 51.785C151.405 51.5654 151.612 51.3608 151.85 51.171C152.089 50.9812 152.361 50.8276 152.667 50.7102C152.972 50.5822 153.306 50.5118 153.668 50.4992Z" fill="white"/>
<ellipse cx="101.182" cy="37.5397" rx="8.5" ry="12.5" transform="rotate(178.987 101.182 37.5397)" fill="#48CEE0"/>
<ellipse cx="187.72" cy="41.6484" rx="8.5" ry="12.5" transform="rotate(178.987 187.72 41.6484)" fill="#48CEE0"/>
<path fill-rule="evenodd" clip-rule="evenodd" d="M134.552 90.5006C133.975 85.008 137.959 80.0874 143.452 79.5101L200.14 73.552C205.632 72.9747 210.553 76.9593 211.13 82.4519L212.475 95.2459C211.516 94.826 210.502 94.6388 209.469 94.7276C204.792 95.1294 201.479 101.031 202.07 107.909C202.661 114.787 206.931 120.038 211.609 119.636C212.81 119.533 213.921 119.067 214.9 118.314L217.088 139.14C217.666 144.632 213.681 149.553 208.188 150.13L192.604 151.768C192.662 151.34 192.674 150.906 192.636 150.469C192.234 145.792 186.332 142.48 179.454 143.071C172.576 143.662 167.326 147.934 167.728 152.611C167.78 153.211 167.922 153.789 168.145 154.339L151.501 156.088C146.008 156.666 141.087 152.681 140.51 147.188L134.552 90.5006Z" fill="#FF7C8E"/>
<path d="M166.27 136.45C166.299 136.726 166.228 136.969 166.057 137.18C165.896 137.379 165.677 137.493 165.401 137.522C165.136 137.55 164.904 137.483 164.705 137.322C164.504 137.15 164.39 136.926 164.361 136.65L163.327 126.817C163.298 126.541 163.364 126.303 163.526 126.104C163.697 125.893 163.92 125.773 164.196 125.744C164.472 125.715 164.704 125.787 164.894 125.96C165.093 126.121 165.208 126.34 165.237 126.616L166.27 136.45ZM172.384 136.949C171.482 137.044 170.678 136.941 169.971 136.64C169.273 136.327 168.709 135.866 168.281 135.257C167.863 134.647 167.611 133.933 167.525 133.116C167.424 132.162 167.53 131.33 167.842 130.621C168.163 129.901 168.617 129.328 169.205 128.902C169.793 128.475 170.438 128.225 171.138 128.151C171.679 128.095 172.2 128.152 172.7 128.325C173.212 128.497 173.674 128.759 174.086 129.112C174.498 129.455 174.836 129.87 175.102 130.357C175.378 130.843 175.546 131.372 175.607 131.945C175.623 132.201 175.544 132.418 175.37 132.597C175.195 132.777 174.981 132.88 174.726 132.906L168.648 133.545L168.003 132.004L173.843 131.39L173.526 131.745L173.481 131.316C173.428 131.01 173.287 130.746 173.06 130.523C172.844 130.3 172.579 130.134 172.268 130.028C171.966 129.909 171.65 129.867 171.322 129.902C171.003 129.935 170.711 130.009 170.444 130.123C170.177 130.237 169.953 130.405 169.773 130.628C169.593 130.85 169.462 131.138 169.381 131.489C169.3 131.841 169.287 132.277 169.341 132.797C169.402 133.369 169.57 133.845 169.845 134.224C170.131 134.591 170.47 134.861 170.864 135.034C171.267 135.195 171.68 135.254 172.105 135.209C172.497 135.168 172.807 135.103 173.033 135.015C173.26 134.927 173.438 134.833 173.567 134.734C173.705 134.622 173.83 134.529 173.94 134.453C174.121 134.338 174.296 134.271 174.466 134.253C174.699 134.228 174.898 134.288 175.064 134.431C175.239 134.574 175.339 134.751 175.361 134.963C175.391 135.25 175.27 135.525 174.997 135.79C174.746 136.052 174.38 136.3 173.901 136.533C173.42 136.755 172.915 136.894 172.384 136.949ZM183.708 126.83C183.984 126.801 184.222 126.867 184.421 127.029C184.62 127.19 184.735 127.414 184.765 127.701L185.472 134.431C185.501 134.707 185.436 134.95 185.275 135.16C185.114 135.359 184.895 135.473 184.62 135.502C184.344 135.531 184.106 135.465 183.907 135.304C183.707 135.132 183.592 134.908 183.563 134.632L183.481 133.852L183.846 133.959C183.861 134.097 183.804 134.274 183.677 134.491C183.548 134.698 183.367 134.91 183.132 135.128C182.898 135.346 182.613 135.542 182.277 135.716C181.951 135.879 181.586 135.982 181.183 136.025C180.451 136.101 179.769 135.985 179.136 135.677C178.502 135.357 177.975 134.887 177.556 134.266C177.146 133.633 176.896 132.887 176.806 132.028C176.714 131.158 176.804 130.377 177.074 129.683C177.354 128.978 177.766 128.409 178.31 127.977C178.854 127.534 179.481 127.275 180.192 127.2C180.648 127.152 181.074 127.177 181.47 127.275C181.867 127.372 182.214 127.513 182.512 127.696C182.821 127.878 183.061 128.073 183.233 128.28C183.414 128.475 183.513 128.647 183.529 128.796L182.978 129.063L182.855 127.901C182.826 127.625 182.893 127.388 183.054 127.189C183.214 126.979 183.432 126.859 183.708 126.83ZM181.238 134.249C181.705 134.2 182.101 134.04 182.427 133.77C182.752 133.5 182.989 133.153 183.138 132.73C183.297 132.306 183.35 131.844 183.298 131.346C183.244 130.837 183.096 130.391 182.852 130.009C182.618 129.626 182.314 129.336 181.94 129.14C181.565 128.943 181.145 128.869 180.678 128.918C180.222 128.966 179.831 129.125 179.505 129.396C179.18 129.666 178.937 130.013 178.778 130.437C178.63 130.86 178.582 131.327 178.636 131.836C178.688 132.334 178.831 132.775 179.064 133.158C179.308 133.54 179.617 133.83 179.992 134.026C180.367 134.223 180.782 134.297 181.238 134.249ZM190.782 122.95C191.015 122.925 191.247 122.933 191.476 122.973C191.706 123.013 191.903 123.1 192.067 123.233C192.23 123.355 192.323 123.533 192.348 123.766C192.376 124.032 192.319 124.252 192.176 124.428C192.043 124.592 191.876 124.685 191.674 124.706C191.579 124.716 191.434 124.71 191.238 124.687C191.042 124.654 190.853 124.647 190.673 124.666C190.408 124.694 190.207 124.774 190.071 124.907C189.945 125.038 189.864 125.186 189.828 125.35C189.79 125.505 189.778 125.64 189.79 125.757L190.645 133.888C190.674 134.164 190.608 134.406 190.448 134.616C190.286 134.816 190.068 134.93 189.792 134.959C189.516 134.988 189.279 134.922 189.079 134.76C188.879 134.588 188.764 134.364 188.735 134.089L187.882 125.973C187.803 125.22 188.001 124.556 188.477 123.98C188.953 123.405 189.721 123.061 190.782 122.95ZM191.317 126.352C191.571 126.326 191.792 126.388 191.98 126.54C192.166 126.681 192.273 126.879 192.3 127.134C192.326 127.388 192.264 127.61 192.112 127.797C191.959 127.974 191.755 128.076 191.501 128.103L187.284 128.546C187.029 128.573 186.809 128.515 186.622 128.374C186.435 128.222 186.328 128.019 186.301 127.764C186.274 127.51 186.337 127.294 186.49 127.117C186.642 126.929 186.845 126.822 187.1 126.796L191.317 126.352Z" fill="white"/>
<ellipse cx="172.182" cy="70.5397" rx="8.5" ry="12.5" transform="rotate(-94.9148 172.182 70.5397)" fill="#FF7C8E"/>
<path fill-rule="evenodd" clip-rule="evenodd" d="M68.994 72.0453C63.5014 71.468 58.5808 75.4526 58.0035 80.9452L52.0453 137.633C51.468 143.126 55.4527 148.046 60.9453 148.623L117.633 154.582C123.126 155.159 128.046 151.174 128.624 145.682L130.448 128.327C129.392 128.855 128.262 129.099 127.108 128.999C122.431 128.594 119.122 122.69 119.718 115.813C120.314 108.935 124.588 103.688 129.265 104.093C130.581 104.207 131.789 104.756 132.832 105.641L134.582 88.9939C135.159 83.5013 131.174 78.5807 125.682 78.0034L68.994 72.0453Z" fill="#FDB651"/>
<path d="M100.013 104.039C99.7796 104.014 99.5549 103.958 99.3388 103.871C99.1227 103.784 98.9483 103.659 98.8153 103.495C98.6813 103.341 98.6266 103.148 98.6511 102.914C98.679 102.649 98.7808 102.445 98.9567 102.303C99.1208 102.17 99.3037 102.114 99.5052 102.135C99.6007 102.145 99.7417 102.181 99.9282 102.244C100.114 102.317 100.296 102.363 100.477 102.382C100.742 102.41 100.955 102.373 101.116 102.272C101.266 102.17 101.376 102.042 101.446 101.889C101.514 101.746 101.555 101.616 101.567 101.499L102.422 93.368C102.451 93.0922 102.565 92.8683 102.766 92.6963C102.965 92.5349 103.203 92.4687 103.478 92.4977C103.754 92.5267 103.973 92.6408 104.134 92.8401C104.294 93.05 104.36 93.2929 104.331 93.5687L103.478 101.684C103.399 102.437 103.067 103.046 102.482 103.51C101.897 103.974 101.074 104.15 100.013 104.039ZM100.198 100.599C99.943 100.572 99.7397 100.465 99.5878 100.278C99.4348 100.101 99.3717 99.8849 99.3985 99.6303C99.4252 99.3757 99.5324 99.1725 99.72 99.0206C99.9064 98.8793 100.127 98.822 100.382 98.8488L104.598 99.292C104.853 99.3187 105.057 99.4206 105.21 99.5976C105.362 99.7851 105.424 100.006 105.397 100.261C105.371 100.515 105.264 100.713 105.078 100.855C104.89 101.007 104.669 101.069 104.414 101.042L100.198 100.599ZM96.8205 92.7793C96.8495 92.5035 96.9695 92.2801 97.1805 92.1093C97.3798 91.9479 97.6173 91.8817 97.8931 91.9107C98.1583 91.9385 98.3716 92.0521 98.533 92.2514C98.6933 92.4613 98.7589 92.7042 98.7299 92.98L97.6964 102.814C97.6674 103.09 97.5532 103.308 97.3539 103.47C97.1429 103.64 96.8995 103.711 96.6237 103.682C96.3479 103.653 96.1351 103.535 95.9855 103.326C95.8241 103.126 95.7579 102.889 95.7869 102.613L96.8205 92.7793ZM87.4904 99.4244C87.2146 99.3954 86.9965 99.276 86.8362 99.0661C86.6749 98.8668 86.6087 98.6293 86.6376 98.3534L87.3484 91.5907C87.451 90.6147 87.7181 89.8598 88.1496 89.326C88.5716 88.7805 89.1036 88.4127 89.7456 88.2228C90.3876 88.0329 91.0906 87.9781 91.8544 88.0583C92.1938 88.094 92.5517 88.1584 92.928 88.2516C93.3044 88.3448 93.6089 88.4573 93.8418 88.589C94.1455 88.7603 94.3499 88.9588 94.4549 89.1843C94.5504 89.3982 94.5488 89.6179 94.45 89.8434C94.3222 90.141 94.1461 90.337 93.9216 90.4314C93.6983 90.5152 93.4744 90.5024 93.25 90.393C93.0858 90.3221 92.8714 90.2191 92.6067 90.0841C92.3432 89.9384 92.0311 89.8466 91.6704 89.8087C91.1824 89.7574 90.772 89.784 90.4393 89.8884C90.0971 89.9812 89.8297 90.1783 89.6371 90.4798C89.435 90.7696 89.3056 91.185 89.2487 91.7261L89.1366 92.7922L88.8426 92.3752C89.0598 92.0441 89.3185 91.7763 89.6188 91.5719C89.9075 91.377 90.2435 91.2407 90.6271 91.1631C91.0107 91.0854 91.4411 91.0716 91.9185 91.1218C92.4807 91.1809 92.9606 91.3601 93.3582 91.6593C93.744 91.9679 94.0297 92.3626 94.2151 92.8433C94.3994 93.3346 94.4604 93.8773 94.3979 94.4713L93.9096 99.1177C93.8806 99.3936 93.7665 99.6122 93.5672 99.7735C93.3668 99.9455 93.1286 100.017 92.8528 99.9881C92.577 99.9591 92.359 99.8396 92.1987 99.6297C92.0373 99.4304 91.9711 99.1929 92.0001 98.9171L92.4283 94.8435C92.5007 94.154 92.4035 93.6504 92.1366 93.3327C91.8579 93.0246 91.4481 92.8421 90.9071 92.7852C90.5358 92.7462 90.2156 92.7822 89.9465 92.8934C89.6763 93.0152 89.4577 93.2067 89.2908 93.468C89.1228 93.7399 89.0176 94.0775 88.9753 94.4806L88.5471 98.5541C88.5181 98.8299 88.404 99.0485 88.2047 99.2099C88.0043 99.3819 87.7662 99.4534 87.4904 99.4244Z" fill="white"/>
<ellipse cx="98.4516" cy="69.9746" rx="8.5" ry="12.5" transform="rotate(-85.0537 98.4516 69.9746)" fill="#FDB651"/>
<path fill-rule="evenodd" clip-rule="evenodd" d="M120.821 156.32H105.32C99.7973 156.32 95.3202 160.797 95.3202 166.32V223.32C95.3202 228.843 99.7973 233.32 105.32 233.32H120.678C120.012 232.281 119.643 231.134 119.643 229.928C119.643 225.233 125.239 221.428 132.143 221.428C139.046 221.428 144.643 225.233 144.643 229.928C144.643 231.134 144.273 232.281 143.607 233.32H162.32C167.843 233.32 172.32 228.843 172.32 223.32V166.32C172.32 160.797 167.843 156.32 162.32 156.32H143.464C144.22 157.415 144.643 158.638 144.643 159.928C144.643 164.622 139.046 168.428 132.143 168.428C125.239 168.428 119.643 164.622 119.643 159.928C119.643 158.638 120.065 157.415 120.821 156.32Z" fill="#868BFF"/>
<path d="M150.28 207.704C150.28 207.427 150.371 207.197 150.552 207.016C150.733 206.835 150.968 206.744 151.256 206.744H158.024C158.301 206.744 158.536 206.835 158.728 207.016C158.909 207.197 159 207.427 159 207.704C159 207.981 158.909 208.211 158.728 208.392C158.536 208.573 158.301 208.664 158.024 208.664H157.24L157.384 208.312C157.523 208.312 157.693 208.387 157.896 208.536C158.088 208.685 158.28 208.888 158.472 209.144C158.664 209.4 158.829 209.704 158.968 210.056C159.096 210.397 159.16 210.771 159.16 211.176C159.16 211.912 158.973 212.579 158.6 213.176C158.216 213.773 157.693 214.248 157.032 214.6C156.36 214.941 155.592 215.112 154.728 215.112C153.853 215.112 153.085 214.941 152.424 214.6C151.752 214.248 151.229 213.779 150.856 213.192C150.472 212.605 150.28 211.955 150.28 211.24C150.28 210.781 150.349 210.36 150.488 209.976C150.627 209.592 150.803 209.261 151.016 208.984C151.229 208.696 151.448 208.477 151.672 208.328C151.885 208.168 152.067 208.088 152.216 208.088L152.424 208.664H151.256C150.979 208.664 150.749 208.573 150.568 208.392C150.376 208.211 150.28 207.981 150.28 207.704ZM157.4 210.936C157.4 210.467 157.283 210.056 157.048 209.704C156.813 209.352 156.493 209.08 156.088 208.888C155.683 208.685 155.229 208.584 154.728 208.584C154.216 208.584 153.757 208.685 153.352 208.888C152.947 209.08 152.627 209.352 152.392 209.704C152.157 210.056 152.04 210.467 152.04 210.936C152.04 211.395 152.157 211.8 152.392 212.152C152.627 212.504 152.947 212.781 153.352 212.984C153.757 213.176 154.216 213.272 154.728 213.272C155.229 213.272 155.683 213.176 156.088 212.984C156.493 212.781 156.813 212.504 157.048 212.152C157.283 211.8 157.4 211.395 157.4 210.936ZM150.28 200.231C150.28 199.484 150.472 198.818 150.856 198.231C151.229 197.634 151.747 197.164 152.408 196.823C153.069 196.471 153.837 196.295 154.712 196.295C155.587 196.295 156.36 196.471 157.032 196.823C157.693 197.164 158.216 197.628 158.6 198.215C158.973 198.791 159.16 199.442 159.16 200.167C159.16 200.594 159.091 200.994 158.952 201.367C158.813 201.74 158.637 202.071 158.424 202.359C158.211 202.636 157.997 202.855 157.784 203.015C157.56 203.164 157.373 203.239 157.224 203.239L157.016 202.743H161.224C161.501 202.743 161.731 202.834 161.912 203.015C162.104 203.196 162.2 203.426 162.2 203.703C162.2 203.98 162.109 204.21 161.928 204.391C161.747 204.572 161.512 204.663 161.224 204.663H151.416C151.139 204.663 150.909 204.572 150.728 204.391C150.536 204.21 150.44 203.98 150.44 203.703C150.44 203.426 150.536 203.196 150.728 203.015C150.909 202.834 151.139 202.743 151.416 202.743H152.2L152.056 203.015C151.917 203.015 151.752 202.94 151.56 202.791C151.357 202.642 151.16 202.439 150.968 202.183C150.765 201.927 150.6 201.634 150.472 201.303C150.344 200.962 150.28 200.604 150.28 200.231ZM152.04 200.471C152.04 200.94 152.157 201.351 152.392 201.703C152.627 202.055 152.947 202.332 153.352 202.535C153.747 202.727 154.2 202.823 154.712 202.823C155.213 202.823 155.672 202.727 156.088 202.535C156.493 202.332 156.813 202.055 157.048 201.703C157.283 201.351 157.4 200.94 157.4 200.471C157.4 200.002 157.283 199.596 157.048 199.255C156.813 198.903 156.493 198.631 156.088 198.439C155.672 198.236 155.213 198.135 154.712 198.135C154.2 198.135 153.747 198.236 153.352 198.439C152.947 198.631 152.627 198.903 152.392 199.255C152.157 199.596 152.04 200.002 152.04 200.471ZM150.28 190.262C150.28 189.516 150.472 188.849 150.856 188.262C151.229 187.665 151.747 187.196 152.408 186.854C153.069 186.502 153.837 186.326 154.712 186.326C155.587 186.326 156.36 186.502 157.032 186.854C157.693 187.196 158.216 187.66 158.6 188.246C158.973 188.822 159.16 189.473 159.16 190.198C159.16 190.625 159.091 191.025 158.952 191.398C158.813 191.772 158.637 192.102 158.424 192.39C158.211 192.668 157.997 192.886 157.784 193.046C157.56 193.196 157.373 193.27 157.224 193.27L157.016 192.774H161.224C161.501 192.774 161.731 192.865 161.912 193.046C162.104 193.228 162.2 193.457 162.2 193.734C162.2 194.012 162.109 194.241 161.928 194.422C161.747 194.604 161.512 194.694 161.224 194.694H151.416C151.139 194.694 150.909 194.604 150.728 194.422C150.536 194.241 150.44 194.012 150.44 193.734C150.44 193.457 150.536 193.228 150.728 193.046C150.909 192.865 151.139 192.774 151.416 192.774H152.2L152.056 193.046C151.917 193.046 151.752 192.972 151.56 192.822C151.357 192.673 151.16 192.47 150.968 192.214C150.765 191.958 150.6 191.665 150.472 191.334C150.344 190.993 150.28 190.636 150.28 190.262ZM152.04 190.502C152.04 190.972 152.157 191.382 152.392 191.734C152.627 192.086 152.947 192.364 153.352 192.566C153.747 192.758 154.2 192.854 154.712 192.854C155.213 192.854 155.672 192.758 156.088 192.566C156.493 192.364 156.813 192.086 157.048 191.734C157.283 191.382 157.4 190.972 157.4 190.502C157.4 190.033 157.283 189.628 157.048 189.286C156.813 188.934 156.493 188.662 156.088 188.47C155.672 188.268 155.213 188.166 154.712 188.166C154.2 188.166 153.747 188.268 153.352 188.47C152.947 188.662 152.627 188.934 152.392 189.286C152.157 189.628 152.04 190.033 152.04 190.502ZM158.024 182.646C158.301 182.646 158.536 182.742 158.728 182.934C158.909 183.115 159 183.344 159 183.622C159 183.888 158.909 184.112 158.728 184.294C158.536 184.475 158.301 184.566 158.024 184.566H148.136C147.859 184.566 147.629 184.475 147.448 184.294C147.256 184.102 147.16 183.867 147.16 183.59C147.16 183.312 147.256 183.088 147.448 182.918C147.629 182.736 147.859 182.646 148.136 182.646H158.024ZM159.16 176.617C159.16 177.524 158.973 178.313 158.6 178.985C158.216 179.647 157.699 180.159 157.048 180.521C156.397 180.873 155.661 181.049 154.84 181.049C153.88 181.049 153.064 180.857 152.392 180.473C151.709 180.079 151.187 179.567 150.824 178.937C150.461 178.308 150.28 177.641 150.28 176.937C150.28 176.393 150.392 175.881 150.616 175.401C150.84 174.911 151.149 174.479 151.544 174.105C151.928 173.732 152.376 173.439 152.888 173.225C153.4 173.001 153.944 172.889 154.52 172.889C154.776 172.9 154.984 173.001 155.144 173.193C155.304 173.385 155.384 173.609 155.384 173.865V179.977L153.784 180.457V174.585L154.104 174.937H153.672C153.363 174.959 153.085 175.071 152.84 175.273C152.595 175.465 152.403 175.711 152.264 176.009C152.115 176.297 152.04 176.607 152.04 176.937C152.04 177.257 152.083 177.556 152.168 177.833C152.253 178.111 152.397 178.351 152.6 178.553C152.803 178.756 153.075 178.916 153.416 179.033C153.757 179.151 154.189 179.209 154.712 179.209C155.288 179.209 155.779 179.092 156.184 178.857C156.579 178.612 156.883 178.303 157.096 177.929C157.299 177.545 157.4 177.14 157.4 176.713C157.4 176.319 157.368 176.004 157.304 175.769C157.24 175.535 157.165 175.348 157.08 175.209C156.984 175.06 156.904 174.927 156.84 174.809C156.744 174.617 156.696 174.436 156.696 174.265C156.696 174.031 156.776 173.839 156.936 173.689C157.096 173.529 157.283 173.449 157.496 173.449C157.784 173.449 158.045 173.599 158.28 173.897C158.515 174.175 158.723 174.564 158.904 175.065C159.075 175.567 159.16 176.084 159.16 176.617Z" fill="white"/>
<rect x="181.013" y="152.367" width="77" height="77" rx="10" transform="rotate(5.69889 181.013 152.367)" fill="#ACDE5F"/>
<path d="M203.434 206.18C204.219 206.258 204.797 206.482 205.168 206.851C205.549 207.222 205.786 207.69 205.879 208.257C205.985 208.814 206.004 209.427 205.937 210.096L205.53 214.172C205.503 214.447 205.389 214.672 205.19 214.845C204.991 215.007 204.754 215.075 204.478 215.047C204.202 215.02 203.983 214.907 203.821 214.708C203.659 214.499 203.592 214.257 203.62 213.981L204.027 209.905C204.062 209.555 204.045 209.237 203.977 208.951C203.921 208.656 203.784 208.412 203.568 208.219C203.351 208.026 203.025 207.908 202.59 207.864C202.166 207.822 201.796 207.871 201.482 208.011C201.179 208.152 200.933 208.358 200.745 208.629C200.569 208.89 200.463 209.196 200.429 209.546L200.022 213.622C199.994 213.898 199.881 214.122 199.681 214.295C199.483 214.458 199.246 214.525 198.97 214.498C198.694 214.47 198.474 214.357 198.312 214.159C198.151 213.95 198.084 213.707 198.111 213.431L198.767 206.856C198.795 206.58 198.908 206.361 199.106 206.198C199.306 206.025 199.544 205.952 199.82 205.98C200.096 206.007 200.314 206.126 200.476 206.335C200.638 206.533 200.705 206.77 200.678 207.046L200.61 207.731L200.376 207.659C200.489 207.489 200.646 207.311 200.847 207.128C201.048 206.933 201.28 206.758 201.542 206.602C201.804 206.446 202.095 206.33 202.413 206.255C202.733 206.169 203.073 206.144 203.434 206.18ZM214.669 207.462C214.945 207.489 215.164 207.608 215.325 207.817C215.488 208.015 215.555 208.252 215.527 208.528L215.124 212.572C215.012 213.697 214.61 214.558 213.918 215.153C213.226 215.749 212.291 215.988 211.113 215.87C209.934 215.753 209.065 215.334 208.505 214.613C207.955 213.894 207.736 212.971 207.848 211.846L208.252 207.802C208.279 207.526 208.392 207.307 208.591 207.145C208.79 206.972 209.028 206.899 209.304 206.926C209.58 206.954 209.798 207.072 209.96 207.281C210.122 207.48 210.19 207.717 210.162 207.993L209.759 212.037C209.694 212.684 209.789 213.182 210.044 213.529C210.3 213.865 210.714 214.062 211.287 214.119C211.871 214.177 212.322 214.067 212.639 213.788C212.957 213.498 213.149 213.029 213.213 212.382L213.617 208.338C213.644 208.062 213.757 207.843 213.956 207.68C214.155 207.507 214.393 207.434 214.669 207.462ZM217.772 207.932L221.546 208.309C221.8 208.334 222.004 208.44 222.157 208.627C222.31 208.814 222.374 209.035 222.348 209.289C222.324 209.534 222.218 209.732 222.032 209.885C221.846 210.027 221.626 210.086 221.371 210.06L217.598 209.684C217.343 209.658 217.139 209.552 216.986 209.365C216.833 209.179 216.77 208.958 216.795 208.703C216.819 208.459 216.924 208.266 217.11 208.124C217.297 207.971 217.518 207.907 217.772 207.932ZM219.674 206.112C219.95 206.14 220.164 206.258 220.315 206.466C220.477 206.664 220.544 206.901 220.517 207.177L219.81 214.262C219.795 214.411 219.809 214.535 219.853 214.636C219.907 214.738 219.98 214.815 220.071 214.867C220.173 214.92 220.282 214.952 220.399 214.964C220.526 214.977 220.645 214.967 220.756 214.935C220.867 214.893 220.992 214.878 221.13 214.892C221.278 214.907 221.404 214.989 221.507 215.139C221.621 215.29 221.665 215.487 221.641 215.731C221.611 216.028 221.423 216.256 221.074 216.414C220.737 216.573 220.382 216.635 220.011 216.597C219.788 216.575 219.54 216.534 219.267 216.475C219.006 216.406 218.761 216.29 218.53 216.128C218.312 215.956 218.137 215.714 218.008 215.401C217.878 215.088 217.84 214.671 217.891 214.151L218.606 206.986C218.634 206.711 218.747 206.491 218.945 206.329C219.155 206.157 219.399 206.085 219.674 206.112ZM223.306 215.592C223.215 215.433 223.186 215.237 223.22 215.004C223.254 214.772 223.412 214.584 223.695 214.441C223.875 214.351 224.06 214.327 224.249 214.367C224.439 214.397 224.615 214.511 224.777 214.709C225.054 215.048 225.354 215.319 225.677 215.523C226 215.726 226.416 215.854 226.925 215.905C227.086 215.91 227.263 215.906 227.457 215.893C227.652 215.87 227.825 215.801 227.976 215.688C228.138 215.565 228.233 215.365 228.261 215.089C228.284 214.856 228.223 214.662 228.078 214.508C227.932 214.354 227.732 214.216 227.476 214.094C227.231 213.973 226.953 213.855 226.643 213.738C226.324 213.61 225.995 213.469 225.656 213.318C225.328 213.167 225.03 212.987 224.761 212.778C224.494 212.559 224.285 212.286 224.135 211.96C223.985 211.634 223.934 211.238 223.981 210.771C224.034 210.24 224.227 209.804 224.561 209.462C224.896 209.12 225.306 208.872 225.793 208.717C226.291 208.563 226.8 208.512 227.32 208.564C227.649 208.596 227.99 208.673 228.342 208.794C228.696 208.904 229.028 209.066 229.339 209.28C229.651 209.482 229.904 209.738 230.099 210.047C230.2 210.218 230.249 210.416 230.248 210.641C230.247 210.866 230.126 211.057 229.886 211.215C229.714 211.327 229.522 211.367 229.311 211.335C229.101 211.293 228.933 211.201 228.808 211.06C228.651 210.808 228.425 210.598 228.131 210.429C227.848 210.262 227.509 210.158 227.117 210.119C226.958 210.103 226.78 210.107 226.585 210.13C226.401 210.144 226.234 210.208 226.084 210.321C225.934 210.424 225.846 210.609 225.819 210.874C225.795 211.118 225.855 211.322 225.999 211.487C226.145 211.641 226.345 211.779 226.601 211.901C226.869 212.013 227.152 212.127 227.452 212.243C227.761 212.359 228.075 212.493 228.393 212.642C228.71 212.792 228.997 212.976 229.254 213.194C229.511 213.413 229.709 213.685 229.848 214.009C229.988 214.324 230.035 214.714 229.988 215.181C229.934 215.723 229.729 216.168 229.372 216.519C229.016 216.869 228.589 217.121 228.091 217.275C227.594 217.419 227.097 217.465 226.598 217.416C225.971 217.353 225.356 217.184 224.751 216.91C224.147 216.624 223.665 216.185 223.306 215.592Z" fill="white"/>
<ellipse cx="220.142" cy="151.928" rx="8.5" ry="12.5" transform="rotate(-82.9258 220.142 151.928)" fill="#ACDE5F"/>
<ellipse cx="258.452" cy="198.975" rx="8.5" ry="12.5" transform="rotate(-172.93 258.452 198.975)" fill="#ACDE5F"/>
<path fill-rule="evenodd" clip-rule="evenodd" d="M38.0561 151.318L21.6568 152.177C16.1415 152.466 11.9048 157.172 12.1939 162.687L15.177 219.609C15.4661 225.124 20.1714 229.361 25.6867 229.072L82.6086 226.089C88.1239 225.799 92.3606 221.094 92.0715 215.579L89.0884 158.657C88.7993 153.142 84.094 148.905 78.5787 149.194L59.7908 150.179C60.8839 151.359 61.5457 152.754 61.6254 154.274C61.8711 158.961 56.4815 163.055 49.5874 163.416C42.6933 163.777 36.9053 160.27 36.6596 155.582C36.58 154.062 37.0924 152.605 38.0561 151.318Z" fill="#E88FFD"/>
<path d="M43.0197 199.985C43.2966 199.971 43.5307 200.055 43.7218 200.237C43.9124 200.409 44.0149 200.633 44.0294 200.91L44.3853 207.7C44.4367 208.68 44.291 209.468 43.9483 210.063C43.6169 210.667 43.1489 211.114 42.5445 211.402C41.9401 211.69 41.2544 211.854 40.4874 211.894C40.1466 211.912 39.783 211.904 39.3967 211.871C39.0105 211.838 38.6921 211.775 38.4415 211.681C38.1147 211.559 37.8818 211.395 37.7428 211.189C37.615 210.993 37.5822 210.775 37.6445 210.537C37.7242 210.223 37.8675 210.002 38.0744 209.874C38.2819 209.756 38.505 209.734 38.7438 209.807C38.917 209.851 39.1449 209.919 39.4274 210.011C39.7105 210.114 40.0332 210.156 40.3953 210.137C40.8853 210.111 41.2865 210.02 41.5988 209.865C41.9223 209.72 42.1556 209.484 42.2986 209.156C42.4528 208.838 42.5157 208.407 42.4873 207.864L42.4312 206.793L42.7868 207.159C42.6241 207.52 42.4105 207.825 42.1458 208.074C41.8912 208.312 41.5806 208.499 41.2139 208.636C40.8472 208.772 40.4242 208.853 39.9449 208.878C39.3803 208.908 38.8783 208.806 38.4388 208.573C38.0094 208.328 37.6656 207.983 37.4072 207.537C37.1483 207.081 37.0032 206.555 36.972 205.958L36.7274 201.292C36.7129 201.016 36.7915 200.782 36.9631 200.591C37.1341 200.39 37.3581 200.282 37.635 200.268C37.912 200.253 38.146 200.337 38.3372 200.519C38.5277 200.691 38.6303 200.915 38.6448 201.192L38.8592 205.282C38.8955 205.975 39.0703 206.457 39.3836 206.729C39.707 206.99 40.1404 207.106 40.6836 207.077C41.0564 207.058 41.367 206.972 41.6154 206.82C41.8633 206.658 42.0492 206.434 42.1731 206.15C42.2965 205.855 42.3476 205.505 42.3264 205.101L42.112 201.01C42.0975 200.733 42.1761 200.5 42.3477 200.309C42.5187 200.108 42.7427 200 43.0197 199.985ZM53.604 199.27C53.8809 199.256 54.1147 199.334 54.3053 199.506C54.4959 199.678 54.5987 199.907 54.6138 200.195L54.968 206.954C54.9825 207.231 54.9042 207.47 54.7332 207.671C54.5616 207.861 54.3373 207.964 54.0604 207.978C53.7834 207.993 53.5496 207.914 53.3591 207.743C53.1679 207.561 53.0651 207.331 53.0506 207.054L53.0096 206.271L53.3686 206.397C53.3759 206.535 53.3102 206.709 53.1717 206.92C53.0326 207.119 52.8403 207.321 52.5947 207.527C52.3491 207.732 52.0542 207.913 51.7099 208.07C51.3757 208.215 51.0063 208.299 50.6015 208.32C49.8665 208.358 49.191 208.207 48.5749 207.865C47.9583 207.513 47.4569 207.016 47.0708 206.374C46.6948 205.721 46.4842 204.963 46.4389 204.1C46.3932 203.227 46.5234 202.451 46.8297 201.772C47.146 201.083 47.5873 200.536 48.1537 200.133C48.7194 199.719 49.3592 199.493 50.0728 199.455C50.5309 199.431 50.9553 199.479 51.346 199.597C51.7367 199.715 52.0761 199.874 52.3643 200.072C52.663 200.27 52.8928 200.477 53.0537 200.693C53.2246 200.898 53.314 201.075 53.3218 201.224L52.7575 201.462L52.6964 200.295C52.6819 200.018 52.7604 199.785 52.932 199.594C53.103 199.393 53.327 199.285 53.604 199.27ZM50.7491 206.55C51.2177 206.525 51.6217 206.387 51.9609 206.134C52.3002 205.881 52.5551 205.547 52.7256 205.132C52.9068 204.717 52.9842 204.259 52.958 203.758C52.9312 203.247 52.806 202.794 52.5824 202.4C52.3694 202.005 52.0811 201.7 51.7173 201.484C51.3535 201.268 50.9372 201.173 50.4685 201.197C50.0105 201.221 49.6119 201.36 49.2726 201.612C48.9334 201.865 48.6732 202.199 48.492 202.615C48.3215 203.029 48.2496 203.492 48.2764 204.004C48.3027 204.504 48.4222 204.952 48.6352 205.347C48.8588 205.741 49.1525 206.046 49.5163 206.262C49.8801 206.478 50.291 206.574 50.7491 206.55ZM61.1304 198.876C61.9826 198.831 62.6219 199.006 63.0485 199.4C63.4745 199.784 63.7684 200.297 63.9303 200.94L63.6511 200.811L63.7656 200.548C63.8805 200.297 64.0639 200.025 64.3157 199.734C64.5669 199.433 64.8739 199.176 65.2367 198.965C65.6096 198.743 66.0304 198.619 66.499 198.595C67.266 198.554 67.8552 198.689 68.2666 198.999C68.6887 199.308 68.9888 199.735 69.167 200.281C69.3446 200.817 69.451 201.42 69.4861 202.091L69.7005 206.181C69.715 206.458 69.6368 206.698 69.4657 206.899C69.2941 207.089 69.0698 207.192 68.7929 207.206C68.5159 207.221 68.2822 207.142 68.0916 206.971C67.9005 206.789 67.7976 206.559 67.7831 206.282L67.5688 202.192C67.5503 201.84 67.4913 201.528 67.3915 201.256C67.2912 200.972 67.1248 200.752 66.8922 200.593C66.6595 200.434 66.3355 200.366 65.9201 200.387C65.5153 200.409 65.1736 200.512 64.8949 200.697C64.6162 200.883 64.4099 201.123 64.2758 201.419C64.1518 201.703 64.0991 202.021 64.1175 202.372L64.3319 206.463C64.3464 206.74 64.2681 206.979 64.0971 207.18C63.9255 207.371 63.7012 207.473 63.4243 207.488C63.1473 207.502 62.9135 207.424 62.723 207.252C62.5318 207.07 62.429 206.84 62.4145 206.563L62.2001 202.473C62.1817 202.121 62.1226 201.809 62.0229 201.537C61.9226 201.254 61.7562 201.033 61.5235 200.874C61.2909 200.715 60.9669 200.647 60.5514 200.669C60.1467 200.69 59.8049 200.793 59.5263 200.979C59.2476 201.164 59.0412 201.405 58.9072 201.7C58.7832 201.984 58.7304 202.302 58.7489 202.654L58.9632 206.744C58.9777 207.021 58.8995 207.26 58.7285 207.461C58.5569 207.652 58.3326 207.755 58.0556 207.769C57.7787 207.784 57.5449 207.705 57.3543 207.533C57.1632 207.351 57.0604 207.122 57.0459 206.845L56.7 200.246C56.6855 199.969 56.7641 199.735 56.9356 199.544C57.1067 199.343 57.3307 199.235 57.6076 199.221C57.8846 199.206 58.1186 199.29 58.3098 199.472C58.5003 199.644 58.6029 199.868 58.6174 200.145L58.6534 200.832L58.4112 200.797C58.4976 200.611 58.6207 200.412 58.7805 200.201C58.9398 199.979 59.1372 199.771 59.3727 199.577C59.6082 199.383 59.8723 199.225 60.165 199.103C60.4571 198.97 60.7789 198.894 61.1304 198.876Z" fill="white"/>
<ellipse cx="9.49997" cy="192.5" rx="8.5" ry="12.5" transform="rotate(-3 9.49997 192.5)" fill="#E88FFD"/>
<defs>
<linearGradient id="paint0_linear_50_1262" x1="119" y1="395" x2="135" y2="395" gradientUnits="userSpaceOnUse">
<stop stop-color="#1CCBFA"/>
<stop offset="1" stop-color="#519FFA"/>
</linearGradient>
</defs>
</svg>
