<svg width="225" height="136" viewBox="0 0 225 136" fill="none" xmlns="http://www.w3.org/2000/svg">
<path d="M184.388 55.0109C174.047 52.6841 168.039 60.5969 167.364 66.4489C166.566 73.3649 166.407 87.1437 166.832 90.1229C167.364 93.8469 169.492 99.4329 177.206 100.231C183.377 100.869 187.048 95.8863 188.112 93.3149L195.56 75.4929C198.486 66.7149 195.028 57.4049 184.388 55.0109Z" fill="#00B9FF"/>
<path d="M107.78 76.557C106.929 87.8354 109.376 105.551 110.706 112.999C111.061 116.989 114.164 123.373 121.878 123.373C128.594 123.373 131.454 115.925 131.188 112.999V104.753C142.626 116.191 150.34 124.969 171.088 132.417C195.294 139.865 211.786 130.821 218.702 122.043C225.618 113.265 226.682 93.315 217.638 86.133C208.594 78.951 201.678 85.335 199.284 90.921C196.89 96.507 192.368 107.945 181.462 107.945C163.161 109.222 149.72 97.1276 145.286 90.921L155.128 80.813C157.434 78.3303 160.661 71.9817 155.128 66.4489C149.595 60.9161 143.424 63.257 141.03 65.119C139.257 66.8036 134.38 71.4497 129.06 76.557C128.635 68.8962 123.563 65.7396 121.08 65.119C117.002 64.2323 108.631 65.2786 107.78 76.557Z" fill="#00B9FF"/>
<path d="M78.5202 108.743C65.4862 108.743 62.2942 114.063 62.2942 117.521C62.2942 125.501 77.7222 127.363 83.0422 127.363C92.6182 127.363 102.46 124.171 102.46 117.521C102.46 111.573 97.4062 108.743 78.5202 108.743Z" fill="#00B9FF"/>
<path d="M24.5222 33.997C30.3742 30.007 37.8222 30.273 41.0142 30.805C33.5662 42.243 16.0102 78.4189 16.0102 88.2609C13.2438 120.607 36.8468 124.969 48.9942 123.107C55.3782 121.245 56.9742 112.467 52.4522 108.211C48.4622 101.561 44.9494 94.1129 46.8662 81.0789C49.5262 62.9909 59.6342 50.489 67.0822 40.381L82.7762 47.829C101.503 56.7665 122.322 58.4689 130.39 58.2029C150.34 57.4049 158.56 49.691 162.842 44.371C171.62 33.465 168.694 12.451 155.926 7.39696C144.754 2.97471 139.397 8.72696 135.71 14.313C126.932 27.613 112.036 24.7856 107.514 24.421C91.0222 23.091 72.9342 18.037 52.7182 6.86496C36.5454 -2.07264 22.2168 -0.405706 17.0742 1.54496C-1.27982 8.72696 -1.54582 24.687 1.38016 31.603C7.49818 43.307 17.6062 38.7124 24.5222 33.997Z" fill="#00B9FF"/>
<path fill-rule="evenodd" clip-rule="evenodd" d="M84.3445 100.242C94.1016 98.07 101.396 89.3624 101.396 78.9509C101.396 66.9045 91.6306 57.1389 79.5842 57.1389C67.5378 57.1389 57.7722 66.9045 57.7722 78.9509C57.7722 85.9291 61.0491 92.1419 66.148 96.1345C63.063 99.7595 62.1084 101.819 67.6142 101.295C68.2015 101.295 68.9575 101.31 69.8276 101.328C74.0691 101.414 81.021 101.555 84.3445 100.242ZM87.2982 68.5769C88.4734 68.5769 89.4262 69.5297 89.4262 70.7049V75.493C89.4262 76.6682 88.4734 77.6209 87.2982 77.6209C86.1229 77.6209 85.1702 76.6682 85.1702 75.493V70.7049C85.1702 69.5297 86.1229 68.5769 87.2982 68.5769ZM68.9442 73.6309C68.9442 72.4557 69.8969 71.5029 71.0722 71.5029H75.8602C77.0355 71.5029 77.9882 72.4557 77.9882 73.6309C77.9882 74.8062 77.0354 75.7589 75.8602 75.7589H71.0722C69.8969 75.7589 68.9442 74.8062 68.9442 73.6309ZM84.1062 81.6109C82.3329 82.1429 77.9882 82.9941 74.7962 82.1429C70.8062 81.0789 69.4762 85.3349 72.1362 87.7289C74.7962 90.1229 81.7122 91.7189 87.0322 87.1969C90.4902 82.6749 85.9682 80.5469 84.1062 81.6109Z" fill="#00B9FF"/>
<path fill-rule="evenodd" clip-rule="evenodd" d="M193.111 47.358C198.558 45.5005 202.476 40.3393 202.476 34.263C202.476 26.6238 196.283 20.431 188.644 20.431C181.005 20.431 174.812 26.6238 174.812 34.263C174.812 37.8094 176.147 41.0442 178.341 43.4923C176.449 44.6687 174.727 45.8214 176.142 46.765C180.333 47.7079 184.395 48.0447 187.502 48.0485C187.879 48.0793 188.26 48.095 188.644 48.095C189.53 48.095 190.396 48.0118 191.235 47.8527C192.229 47.7265 192.888 47.5504 193.111 47.358Z" fill="#00B9FF"/>
</svg>
