<svg width="123" height="138" viewBox="0 0 123 138" fill="none" xmlns="http://www.w3.org/2000/svg">
<path d="M1.13081 51.6181C-4.69602 63.2718 13.4641 72.7848 22.1308 75.6181C28.1307 71.1183 32.6307 69.1183 37.1309 63.6181C28.6309 64.6181 8.63074 36.6183 1.13081 51.6181Z" fill="#EB710D"/>
<path d="M86.6308 43.6184V54.6184C83.7975 68.2851 82.8308 94.8182 101.631 91.6182C120.431 88.4182 123.464 65.9516 122.631 55.1183L122.631 15.1184C100.631 11.1183 87.6307 27.1183 86.6308 43.6184Z" fill="#EB710D"/>
<path d="M99.1307 25.1183L91.1307 28.6183C100.131 13.6183 116.131 13.285 122.631 15.1183V41.6183C119.031 41.2183 115.464 33.1183 114.131 29.1183C111.464 34.4516 105.731 45.5183 104.131 47.1183C99.7307 45.1183 98.9641 31.6183 99.1307 25.1183Z" fill="#FFE5C2"/>
<path d="M90.6308 115.118C109.831 98.3181 98.6308 80.7847 90.6308 74.1181C89.4641 66.4515 88.1307 61.6183 87.1307 55.6183C82.1307 52.1183 76.6307 38.1183 77.6307 27.1183C84.8307 15.1183 82.2974 4.45157 80.1307 0.618216C74.6307 -1.88171 60.1307 3.61813 56.6307 9.61813C51.0307 6.41813 40.1307 5.11813 35.1307 5.11813C34.6307 6.11813 34.6307 8.61813 34.6307 11.1181C31.6307 11.1181 30.6307 13.1181 29.6307 14.1181C27.1307 10.1181 12.6307 8.11807 10.6307 10.1181C8.63074 12.1181 10.1307 28.6181 15.6308 30.6181C13.2308 58.2181 25.6308 87.4514 32.1308 98.6181C45.1308 119.618 55.1308 131.618 90.6308 115.118Z" fill="#FC821E"/>
<path d="M117.631 112.118C119.131 105.118 116.631 100.618 114.631 99.6182C112.631 98.6182 109.631 98.6183 107.131 96.6183C104.631 94.6183 101.131 92.6182 101.131 92.6182C87.6307 82.1182 76.1307 110.618 89.6307 115.618C103.131 120.618 115.742 120.932 117.631 112.118Z" fill="#FC821E"/>
<path d="M83.6307 128.618V117.618L83.4609 117.553C72.7223 113.422 65.5889 110.678 57.6307 122.118C64.1307 139.118 69.6307 137.618 76.6307 136.618C82.2307 135.818 83.6307 130.952 83.6307 128.618Z" fill="#EB710D"/>
<path d="M71.6307 27.1183H77.6307C81.1307 22.1183 85.1307 9.61829 80.6307 1.61829C72.6307 3.61829 64.2974 14.1183 61.1307 19.1183C61.4641 20.285 62.5307 22.6183 64.1307 22.6183C66.9307 21.0183 69.7974 20.9516 71.1307 21.1183L71.6307 27.1183Z" fill="#FFE5C2"/>
<rect x="42.6307" y="28.6183" width="11" height="6" rx="3" fill="#FFCB90"/>
<rect x="17.6307" y="34.7208" width="9.48136" height="6" rx="3" transform="rotate(-25.6385 17.6307 34.7208)" fill="#FFCB90"/>
<path d="M22.1307 49.6183L27.6307 48.6183" stroke="#441F00" stroke-width="3" stroke-linecap="round"/>
<ellipse cx="49.6307" cy="44.1183" rx="3" ry="4.5" fill="#441F00"/>
<path d="M43.1307 58.1183C43.1307 60.6036 41.1307 63.1183 38.1307 62.6183C35.6455 62.6183 33.6307 60.6036 33.6307 58.1183C33.6307 55.633 35.6455 53.6183 38.1307 53.6183C40.616 53.6183 43.1307 55.633 43.1307 58.1183Z" fill="#FFA896"/>
<path d="M47.8308 54.7183C47.8308 57.5349 45.5475 59.8183 42.7308 59.8183C39.9142 59.8183 37.6308 57.5349 37.6308 54.7183C35.6307 51.6183 39.9142 49.6183 42.7308 49.6183C45.5475 49.6183 47.8308 51.9016 47.8308 54.7183Z" fill="white"/>
<circle cx="32.7307" cy="55.7183" r="5.1" fill="white"/>
<ellipse cx="36.6398" cy="51.1919" rx="3.78267" ry="2.14217" transform="rotate(-6.77891 36.6398 51.1919)" fill="#451F00"/>
<path d="M68.1306 92.1181C78.1306 107.118 85.2973 112.451 90.1306 115.618C84.1306 119.618 71.6307 123.118 58.1307 122.118C47.3307 121.318 38.6307 109.618 31.6306 97.6181C28.6306 77.1181 58.1306 77.118 68.1306 92.1181Z" fill="white"/>
<path d="M52.6307 110.118L61.1307 112.618" stroke="#E5A56B" stroke-width="1.5" stroke-linecap="round"/>
<path d="M58.6307 107.618L55.6307 114.618" stroke="#E5A56B" stroke-width="1.5" stroke-linecap="round"/>
<path d="M111.631 58.6183C103.631 57.8183 90.964 54.9516 85.6307 53.6183C69.6307 59.1183 81.1307 69.1183 83.1307 71.1183C84.5884 72.576 106.631 79.1183 113.631 76.1183C120.631 73.1183 121.631 59.6183 111.631 58.6183Z" fill="#FC821E"/>
</svg>
