<svg width="67" height="64" viewBox="0 0 67 64" fill="none" xmlns="http://www.w3.org/2000/svg">
<path d="M0.471821 22.4999C2.87182 32.4999 13.8052 35.6665 18.9718 35.9999C25.9718 35.4998 22.4718 26 16.4718 24.5C11.6718 23.3 9.80513 21 9.4718 19C8.9718 12.9999 5.9718 12.9998 4.47182 12.9999C1.47181 12.9999 -1.08818 16 0.471821 22.4999Z" fill="#61A400"/>
<path d="M10.9718 52C10.1718 44.4 16.6385 42.1667 19.9718 42L25.9718 55.5C21.3051 57.5 11.7718 59.6 10.9718 52Z" fill="#61A400"/>
<path d="M19.4717 13.5C8.47178 20.5 14.4717 33 19.4717 35V48.5C19.4717 76.5 64.9718 57 66.4718 48.5C67.6718 41.7 61.3051 40.3333 57.9718 40.5V32.5C59.6385 32.3333 62.9718 30 62.9718 23.5C62.9718 15.5 56.9718 12.1667 53.9718 11.5V7C53.9718 2 50.9718 0 46.4718 0C41.2718 0 40.6385 4.66667 40.9718 7H31.9718C31.4718 3 30.9718 0 24.9718 0C20.1718 0 19.3051 5 19.4717 7V13.5Z" fill="#79CB00"/>
<rect x="22.9718" y="34.5" width="25" height="24" rx="6" fill="#B3FF38"/>
<circle cx="21.4718" cy="21" r="4.5" fill="#9BE030"/>
<circle cx="54.4718" cy="21" r="4.5" fill="#9BE030"/>
<path d="M41.4718 17.5H30.9718C30.9718 19.5 30.9718 23 36.4718 23C41.9718 23 41.1385 19.3333 41.4718 17.5Z" fill="white"/>
<path d="M43.4718 11H48.4718" stroke="#3C3C3C" stroke-width="2.5" stroke-linecap="round"/>
<ellipse cx="26.4718" cy="11" rx="2.5" ry="3.5" fill="#3C3C3C"/>
</svg>
