<svg width="668" height="393" viewBox="0 0 668 393" fill="none" xmlns="http://www.w3.org/2000/svg">
<rect x="337" y="38" width="29" height="141" fill="#98B9BB"/>
<rect x="233" y="38" width="29" height="141" fill="#A2C1C4"/>
<path fill-rule="evenodd" clip-rule="evenodd" d="M332.5 120.569C334.333 118.402 336.9 112.569 332.5 106.569C322 107.069 315.333 109.736 311 112.069C309.709 112.808 308.956 112.935 307.5 112.069C307 111.236 306.5 108.569 309 106.569C311.481 104.584 295.739 103.024 284.26 113.755C254.878 120.644 233 147.017 233 178.5V306H366V178.5C366 153.703 352.428 132.076 332.306 120.642C332.371 120.618 332.435 120.593 332.5 120.569Z" fill="#A2C1C4"/>
<path d="M266 340H306V372C306 383.046 297.046 392 286 392C274.954 392 266 383.046 266 372V340Z" fill="#A2C1C4"/>
<path d="M308 341H346V374C346 384.493 337.493 393 327 393C316.507 393 308 384.493 308 374V341Z" fill="#A2C1C4"/>
<rect x="266" y="338" width="40" height="31" fill="#B9D300"/>
<rect x="308" y="339" width="38" height="32" fill="#B9D300"/>
<path d="M271 362C243.5 359.5 233.167 328.667 233 314V306H372V314.5C368.4 351.3 347.5 360 335.5 362C326.167 362.333 300.2 362.8 271 362Z" fill="#CCE70C"/>
<path fill-rule="evenodd" clip-rule="evenodd" d="M356 306C361.334 306.667 369.702 309.706 366 318.5C362 328 359.5 329.5 348.5 322.5C346.167 319.667 341.6 316.2 342 325C342.5 336 341.5 338.5 329.5 333.5C317.5 328.5 316 325 325.5 319.5C329.167 317.333 333.5 313.3 321.5 314.5C308.344 315.816 307.881 314.439 305.942 308.684C305.67 307.877 305.369 306.984 305 306L356 306ZM240 306C243 309 245.5 313.5 239.5 317C233.5 320.5 233 321 245.5 330C255.5 337.2 256.667 330.333 256 326C255 314 259.5 317.5 262.5 324C265.429 331.322 268.04 330.384 270.333 329.56L270.5 329.5C274.5 328 276 326.5 278.5 324C283 318 280.667 316.333 278 315C276.833 314.667 273.8 313.3 271 310.5C268.2 307.7 269.833 306.333 271 306H240ZM301.585 362.439C292.429 362.42 282.165 362.301 271.455 362.012C271.144 361.075 270.511 360.174 269.5 359.5C262.5 355.5 262.5 354.5 267.5 348.5C272.5 342.5 280 341 280.5 347L280.521 347.25C281.001 353.014 281.042 353.514 284 354.5C286.4 355.3 288 349.167 288.5 346C288.5 341 290 337 304.5 343C312.249 348.596 308.508 351.227 304.446 354.085L304.446 354.085L304.446 354.085L304.446 354.085C303.79 354.546 303.126 355.013 302.5 355.5C298.9 358.3 302.667 361 305 362L301.585 362.439ZM357.862 350.325C350.674 357.866 342.25 360.792 336.026 361.909C335.525 361.791 335.017 361.655 334.5 361.5C335.5 360.167 337.2 356.9 336 354.5C334.5 351.5 336 349 348.5 347C350.5 346.5 358.5 344.5 358 349.5C357.974 349.759 357.928 350.035 357.862 350.325Z" fill="#BE8FFE"/>
<path d="M297.158 258.372C276.5 264 267.5 279.5 269 298.835V306H372V298.413C369.333 267.392 358.5 262.5 344.953 258.372C341 256.5 314 255 297.158 258.372Z" fill="white"/>
<path d="M662 53C665.314 53 668 50.3137 668 47C668 43.6863 665.314 41 662 41V53ZM0 53H662V41H0V53Z" fill="#FFC343"/>
<path d="M426.5 53H455C474.2 73.8 473 89.6667 470 95C460.5 69.5 440.333 58.8333 426.5 53Z" fill="#FFC343"/>
<path d="M150 53H133.5C125 64 126.908 76.4524 128.5 79.5C133.542 64.9286 142 56 150 53Z" fill="#FFC343"/>
<path d="M535 41H553.908C568.5 28 566.99 14.3095 565 10.5C558.697 28.7143 544.178 36.8333 535 41Z" fill="#FFC343"/>
<path d="M450 72C454.833 83 457.2 105.8 428 109C415 88.4999 439.5 69.5 450 72Z" fill="#A7BF01"/>
<path d="M551.849 26.8389C555.393 18.8598 557.128 2.3212 535.721 1.90735e-06C526.191 14.8702 544.152 28.6523 551.849 26.8389Z" fill="#A7BF01"/>
<path d="M142.554 59.8109C138.842 68.6766 146 85.4999 165.5 83.4999C169.5 62.4999 150.618 57.796 142.554 59.8109Z" fill="#A7BF01"/>
<path d="M461 71C474.362 68.2604 500.264 71.3924 496.848 104.563C470.994 114.1 455.72 82.0568 461 71Z" fill="#A7BF01"/>
<path d="M559.411 27.6477C569.133 29.6409 587.979 27.3621 585.493 3.22788C566.683 -3.71062 555.57 19.6031 559.411 27.6477Z" fill="#A7BF01"/>
<path d="M134.5 61.9999C122.495 61.2605 100.915 68.9594 108 97.4999C131.754 102.629 140.478 71.0011 134.5 61.9999Z" fill="#A7BF01"/>
<rect x="228" y="26" width="39" height="23" rx="11.5" fill="#A2C1C4"/>
<rect x="333" y="26" width="39" height="23" rx="11.5" fill="#98B9BB"/>
<ellipse cx="312.198" cy="189.936" rx="50.4795" ry="30.7925" transform="rotate(-1.42646 312.198 189.936)" fill="white"/>
<path d="M278.5 167.5C268.1 171.1 266 174 267 177.5C283 183 310 165.5 298.5 160C287 154.5 281.5 158 286.5 162.5C278 159.5 272.5 167.5 278.5 167.5Z" fill="white"/>
<path d="M345.784 167.653C354.5 170 356 174 356.786 177.012C341.479 182.159 315.649 164.781 326.651 159.634C337.653 154.487 341 159.634 338.131 162.974C345 159.5 351 167.653 345.784 167.653Z" fill="white"/>
<ellipse cx="283.5" cy="191.5" rx="6.5" ry="9.5" fill="#3B3B3B"/>
<ellipse cx="340.5" cy="191.5" rx="6.5" ry="9.5" fill="#3B3B3B"/>
<ellipse cx="314" cy="198.5" rx="8" ry="5" fill="#3B3B3B"/>
<path d="M323 208H305C305.333 211.333 306.5 216.5 314 216.5C321.5 216.5 323 210.667 323 208Z" fill="#FCA291"/>
</svg>
