<svg width="214" height="209" viewBox="0 0 214 209" fill="none" xmlns="http://www.w3.org/2000/svg">
<path d="M111.087 187.723L112.255 177.653C113.933 163.176 72.4613 162.855 74.9971 173.993C77.533 185.131 83.4971 200.493 97.8874 197.037C107.304 194.776 110.722 190.871 111.087 187.723Z" fill="#FFA01F"/>
<path d="M38.9972 123.493L42.9971 115.493C47.9972 104.493 40.3683 98.9042 35.4972 93.2364C32.4971 91.9927 21.4972 90.4927 15.9971 93.2363C9.49713 97.9797 7.49706 106.493 11.4971 115.493C15.9971 123.493 29.997 123.493 38.997 123.493L38.9972 123.493Z" fill="#FFA01F"/>
<path d="M177.497 148.993C175.833 141.504 166.997 138.993 159.557 133.446C141.757 133.565 140.653 156.046 141.997 165.493C143.39 165.989 149.997 170.993 159.557 172.493C174.997 174.916 179.497 157.993 177.497 148.993Z" fill="#FFBE2E"/>
<path d="M56.4972 26.4927C57.4067 41.3512 46.0232 47.7867 40.6335 48.8704C32.1223 42.4674 33.8441 33.7294 35.9971 30.4927C41.9971 23.9927 45.6487 22.9841 56.4972 26.4927Z" fill="#E57C17"/>
<path d="M178.497 62.4931C169.354 54.4931 154.497 59.4927 150.497 64.9928C135.83 79.6594 133.497 94.4927 132.497 106.493C130.53 130.092 145.997 138.993 158.997 135.993C168.497 138.993 173.997 113.493 180.997 102.993C188.997 83.4927 190.497 72.9931 178.497 62.4931Z" fill="#E57C17"/>
<path d="M82.354 174.993C111.267 180.897 140.149 168.704 146.997 160.993L147.11 160.891C152.128 156.341 161.486 147.858 159.997 129.993C159.997 115.493 157.691 78.9927 150.497 55.4927C142.997 30.9927 124.497 8.4927 85.4971 12.4927C25.3095 14.4443 33.1845 83.0292 35.4971 101.993C37.9971 122.493 46.2123 167.613 82.354 174.993Z" fill="#FFBE2E"/>
<path d="M199.935 114.856C194.021 125.493 162.767 116.132 151.997 109.993C131.545 99.3287 124.121 92.0321 126.502 76.9989C128.883 61.9657 144.127 62.2311 152.997 69.9924C156.997 73.4925 178.997 84.4928 188.497 87.4926C200.997 91.4397 208.582 99.3035 199.935 114.856Z" fill="#FFBE2E"/>
<path d="M139.497 34.4927C124.697 36.0927 118.33 25.826 116.997 20.4927C122.997 11.6927 131.164 13.4927 134.497 15.4927C141.497 20.4927 142.497 23.4927 139.497 34.4927Z" fill="#E57C17"/>
<path d="M73.5121 93.8393C73.7035 96.0401 75.6428 97.6691 77.8436 97.4777C80.0444 97.2863 81.6734 95.3471 81.482 93.1462L73.5121 93.8393ZM81.482 93.1462L80.482 81.6462L72.5121 82.3393L73.5121 93.8393L81.482 93.1462Z" fill="white"/>
<path d="M81.4125 92.8479C81.6086 95.1038 83.5964 96.7735 85.8523 96.5773C88.1081 96.3812 89.7778 94.3934 89.5817 92.1376L81.4125 92.8479ZM89.5817 92.1376L88.5817 80.6376L80.4125 81.3479L81.4125 92.8479L89.5817 92.1376Z" fill="white"/>
<path d="M61.497 84.9927C62.0842 92.0394 67.497 91.9927 70.4971 91.4927L91.497 89.4927C95.9971 88.4927 99.9971 84.9928 98.9971 79.9927C98.0313 75.1639 93.9971 73.4927 83.9971 74.9927L71.9971 76.4927C65.9971 76.4927 60.9971 78.9928 61.497 84.9927Z" fill="#FFF9BF"/>
<path d="M83.4971 73.4927L71.9971 74.9927C71.9971 77.4927 73.9971 82.9927 79.9971 81.4927C83.9971 80.4927 84.1637 75.8261 83.4971 73.4927Z" fill="#E57C17"/>
<path d="M49.9971 75.9928C51.1637 72.3261 55.2971 66.3928 62.4971 71.9928" stroke="#793900" stroke-width="3.5" stroke-linecap="round"/>
<path d="M96.9971 67.9927C97.9971 63.9927 102.497 60.4927 108.497 66.4927" stroke="#793900" stroke-width="3.5" stroke-linecap="round"/>
<path d="M99.4971 52.4927L108.497 52.4927" stroke="#E47A17" stroke-width="3" stroke-linecap="round"/>
<path d="M48.9971 59.4927L56.9971 56.4927" stroke="#E47A17" stroke-width="3" stroke-linecap="round"/>
<path d="M56.4971 148.493C61.4553 169.569 85.6638 171.326 97.4972 169.493C130.997 165.993 137.497 149.993 134.997 133.993C127.497 109.993 109.497 107.493 79.4984 112.993C75.0449 113.809 50.4984 122.993 56.4971 148.493Z" fill="#FFF9BF"/>
<path d="M85.9971 149.493L98.4971 155.493" stroke="#FFCA57" stroke-width="2.5" stroke-linecap="round"/>
<path d="M87.9971 158.493L95.9971 147.993" stroke="#FFCA57" stroke-width="2.5" stroke-linecap="round"/>
</svg>
