<svg width="123" height="190" viewBox="0 0 123 190" fill="none" xmlns="http://www.w3.org/2000/svg">
<path d="M26.5574 40.7312C29.2311 39.6824 30.3102 37.1903 29.2553 34.501L26.7937 28.2258C28.2245 26.6301 31.262 23.887 29.6916 17.2622C28.1212 10.6375 21.3431 14.3307 22.5739 17.4683C23.6288 20.1577 22.2458 25.3793 16.4051 24.0257C12.7012 23.1674 13.2049 17.1784 13.7798 14.7116C14.4254 9.80357 10.0991 6.63913 7.03793 10.6327C4.9972 13.2951 4.4219 18.3825 7.68073 25.3793C10.2827 30.9659 16.2475 32.3627 19.1243 32.2687L21.4101 38.0956C22.2892 40.3367 23.8837 41.78 26.5574 40.7312Z" fill="#8E4C2F"/>
<path d="M55.7458 176.793L50.2458 165.293C58.0792 157.96 74.3458 147.393 76.7458 163.793C79.7458 184.293 70.7458 183.293 65.7458 183.293C61.7458 183.293 57.4125 178.96 55.7458 176.793Z" fill="#A75A41"/>
<path d="M110.089 95.0561C112.893 100.725 120.838 128.901 105.265 133.079C100.531 134.349 92.7297 138.622 91.3045 123.404C89.2042 100.98 104.861 93.7617 110.089 95.0561Z" fill="#AE5E45"/>
<path d="M17.246 161.793C26.746 168.793 33.5793 157.459 35.746 151.793C35.746 151.793 23.746 91.7927 22.2458 115.793C20.7457 139.793 7.74592 154.793 17.246 161.793Z" fill="#AE5E45"/>
<path d="M64.7458 178.793V167.293L89.2458 159.793L87.7458 180.793C87.0792 183.793 83.7458 189.793 75.7458 189.793C67.7458 189.793 65.0792 182.46 64.7458 178.793Z" fill="#BF6E53"/>
<path d="M0.245847 81.7929C8.24585 85.3929 13.5792 83.2929 15.2458 81.7929C20.0792 74.6263 26.8458 60.3929 15.2458 60.7929C0.745848 61.2929 -0.754153 75.7929 0.245847 81.7929Z" fill="#A75A41"/>
<path d="M42.2458 28.293C63.4458 24.293 76.7458 36.9597 80.7458 43.793C83.4125 42.4597 92.2458 41.793 96.7458 43.293C101.246 44.793 105.817 48.793 102.246 53.793C99.7458 57.293 95.7458 61.793 87.2458 62.293C89.7458 97.293 102.246 116.293 106.246 132.793C109.246 150.793 94.7458 166.793 62.2458 168.793C29.7458 170.793 20.7458 112.793 15.2458 85.793C9.74584 58.793 15.7458 33.293 42.2458 28.293Z" fill="#BF6E53"/>
<path d="M27.7454 84.7929C28.1454 91.5929 35.7455 92.293 39.2454 90.7929C40.5788 92.793 40.7455 97.293 46.2455 96.293C46.2455 93.293 46.5792 90.1263 47.2458 89.293C55.7458 87.293 59.2458 85.793 58.2455 78.2929C57.1693 70.2251 49.2458 70.793 41.2454 72.7929C32.3936 75.0057 27.2454 76.2929 27.7454 84.7929Z" fill="#FFC39B"/>
<path d="M47.2458 81.293L37.2458 83.293C37.4125 84.9596 38.8458 88.093 43.2458 87.293C47.6458 86.493 47.7458 82.9596 47.2458 81.293Z" fill="white"/>
<ellipse cx="40.7164" cy="75.1701" rx="5" ry="3" transform="rotate(-10.7125 40.7164 75.1701)" fill="#4A1C00"/>
<ellipse cx="58.2458" cy="65.293" rx="3" ry="5" transform="rotate(-6.29949 58.2458 65.293)" fill="#4A1C00"/>
<ellipse cx="27.6855" cy="71.2524" rx="2.85" ry="4.75" transform="rotate(-10.1409 27.6855 71.2524)" fill="#4A1C00"/>
<path d="M53.2458 50.793L62.2458 51.793" stroke="#8E4C2F" stroke-width="3" stroke-linecap="round"/>
<path d="M27.7458 55.793L21.7458 58.793" stroke="#8E4C2F" stroke-width="3" stroke-linecap="round"/>
<path d="M46.7459 103.793C27.7459 110.293 32.2459 123.793 35.7459 140.293C40.2458 157.293 49.7458 166.293 66.7458 162.293C80.3458 159.093 79.4125 142.96 77.2458 135.293L73.2458 121.293C70.2458 105.293 57.7458 100.03 46.7459 103.793Z" fill="#FFC39B"/>
<path d="M48.2458 144.293L57.7458 148.793" stroke="#BF6E53" stroke-width="1.75" stroke-linecap="round"/>
<path d="M56.2458 143.293L50.2458 150.293" stroke="#BF6E53" stroke-width="1.75" stroke-linecap="round"/>
<path d="M119.207 101.799C116.333 107.163 100.635 102.728 95.2025 99.7434C84.8944 94.5724 81.1257 90.9827 82.1982 83.4483C83.2708 75.914 90.8937 75.9273 95.3891 79.738C97.4164 81.4565 108.501 86.7836 113.274 88.2088C119.554 90.0842 123.408 93.9562 119.207 101.799Z" fill="#BF6E53"/>
<path d="M57.2458 37.293C54.2458 37.293 52.2458 35.293 52.2458 32.293V25.293C50.2458 24.2929 46.2458 22.793 45.2458 15.793C44.2458 8.79297 52.2458 9.79297 52.2458 13.293C52.2458 16.293 57.2458 20.793 60.7458 17.293C63.5458 14.493 61.2458 9.45966 59.7458 7.29301C57.2458 2.79297 60.2458 -1.90692 64.7458 0.793036C67.7458 2.59299 70.2458 7.29302 69.7458 15.293C69.3466 21.6805 64.0791 25.293 61.2458 26.293V32.793C61.2458 35.293 60.2458 37.293 57.2458 37.293Z" fill="#8E4C2F"/>
</svg>
