<svg width="134" height="191" viewBox="0 0 134 191" fill="none" xmlns="http://www.w3.org/2000/svg">
<path d="M54.8447 181.731V173.731C54.8447 162.231 86.3447 168.231 83.3447 176.731C80.3447 185.231 73.8447 191.231 64.3447 190.231C56.7447 189.431 54.8447 184.231 54.8447 181.731Z" fill="#D02F90"/>
<path d="M120.345 146.731L117.845 144.731C112.645 130.331 120.011 118.731 124.345 114.731C124.845 114.564 127.143 115.955 130.345 123.731C133.845 132.231 134.845 135.731 130.345 143.231C126.745 149.231 122.178 148.064 120.345 146.731Z" fill="#D02F90"/>
<path d="M14.8448 143.231C15.6448 137.231 27.1781 135.064 32.8447 134.231C46.0447 139.031 42.3447 153.564 38.8448 160.231C37.6781 160.231 33.2447 160.731 24.8447 160.731C14.3447 160.731 13.8448 150.731 14.8448 143.231Z" fill="#EC4CAD"/>
<path d="M84.2714 19.1213C85.5736 23.7309 88.8447 36.2309 88.8447 47.7309C97.0328 48.2941 113.265 54.1452 113.845 52.231C114.569 49.8382 112.845 26.7309 106.845 14.7308C100.845 2.73075 93.8853 3.53844 89.8447 4.23077C85.8041 4.9231 81.3709 8.85307 84.2714 19.1213Z" fill="#EC4CAD"/>
<path d="M88.3448 21.2309C91.3448 29.7309 95.3448 42.2309 91.8448 50.7309C97.057 50.444 103.146 50.4008 108.845 50.231C109.43 47.8005 108.68 31.3744 103.345 17.231C101.752 13.0094 97.3389 8.30757 93.3448 9.23091C89.3506 10.1542 86.8447 12.231 88.3448 21.2309Z" fill="#FFC5DC"/>
<path d="M44.3447 18.731C49.9447 26.731 57.5114 43.0643 60.8447 51.231C68.8447 49.3976 84.8447 45.231 84.8447 43.231C84.8447 40.731 75.8447 20.731 67.3447 8.23095C60.5447 -1.76905 52.0114 -0.602376 48.3447 1.23096C44.678 3.06429 40.3447 10.731 44.3447 18.731Z" fill="#EC4CAD"/>
<path d="M49.8447 19.2309C55.4447 27.2309 61.5114 39.0642 64.8447 47.2309C69.8447 45.7309 73.8447 44.2309 79.3447 42.7309C79.3447 40.2309 72.3447 23.7308 63.8447 11.2309C61.3075 7.49979 56.0114 3.89762 52.3447 5.73096C48.678 7.56429 45.8447 11.2309 49.8447 19.2309Z" fill="#FFC5DC"/>
<path d="M79.8447 177.731C56.6447 179.731 41.5114 166.898 36.8447 160.231C33.3447 156.231 27.3447 146.231 33.3447 133.731C41.7447 121.731 45.5114 92.731 46.3447 79.731C48.3447 61.231 53.3447 42.231 93.8447 42.231C140.845 49.231 126.845 108.231 125.345 123.231C123.845 138.231 108.845 175.231 79.8447 177.731Z" fill="#EC4CAD"/>
<path d="M2.34471 121.731C8.22573 131.231 29.8447 125.564 38.8447 121.731C55.8447 115.231 63.8447 110.731 63.3447 98.7309C62.8447 86.7309 52.8447 84.731 45.3447 90.2309C40.1997 94.0039 27.3447 96.5643 18.8447 98.7309C3.34473 101.231 -4.15535 111.231 2.34471 121.731Z" fill="#EC4CAD"/>
<path d="M58.8447 139.231C64.4447 127.231 79.1781 123.231 85.8447 122.731C92.3447 122.397 106.602 127.231 109.345 139.231C113.345 156.731 101.345 169.231 83.3447 170.731C65.6508 172.205 51.8447 154.231 58.8447 139.231Z" fill="#FFA6C9"/>
<path d="M85.3447 150.731L89.8447 159.731" stroke="#FF3888" stroke-width="2" stroke-linecap="round"/>
<path d="M83.3447 157.231L92.3447 153.731" stroke="#FF3888" stroke-width="2" stroke-linecap="round"/>
<path d="M68.3447 81.231C68.7447 72.431 76.6781 68.5643 80.8447 67.731C80.8447 63.731 80.3447 61.731 79.8447 60.231C83.8447 61.031 86.1781 65.5643 86.8447 67.731C90.8447 68.5643 99.3447 69.731 103.845 70.231C111.845 71.1198 121.845 74.231 121.345 87.231C120.945 97.631 112.845 100.898 109.345 101.231C100.345 101.231 80.2447 98.431 77.8447 97.231C74.8447 95.731 67.8447 92.231 68.3447 81.231Z" fill="#FFA6C9"/>
<ellipse cx="112.845" cy="84.731" rx="3" ry="5" fill="#750F4C"/>
<path d="M105.845 88.731H92.8447C93.3447 93.231 97.3447 93.731 100.845 93.731C104.876 93.731 105.845 90.731 105.845 88.731Z" fill="white"/>
<path d="M82.3447 77.231C84 78.5 87 80.5 88.8447 81.731C86 82 82.5 82.5 81 82.5" stroke="#750F4C" stroke-width="2" stroke-linecap="round" stroke-linejoin="round"/>
</svg>
